<svg id="Layer_1" enable-background="new 0 0 128 128" height="512" viewBox="0 0 128 128" width="512" xmlns="http://www.w3.org/2000/svg"><g><g><g><path d="m59.499 20.444h-12.351v-3.709-2.052c0-1.575-1.282-2.857-2.857-2.857h-16.161c-1.575 0-2.856 1.282-2.856 2.857v2.052 3.709h-12.352c-2.9 0-5.26 2.359-5.26 5.26v29.299c0 2.9 2.359 5.26 5.26 5.26h46.577c2.9 0 5.26-2.359 5.26-5.26v-29.299c0-2.9-2.36-5.26-5.26-5.26zm-32.226-2.709h17.875v2.709h-17.875z" fill="#e6e7e8"/></g><g><path d="m119.078 80.355h-12.351v-3.709-2.052c0-1.575-1.282-2.857-2.857-2.857h-16.162c-1.575 0-2.856 1.282-2.856 2.857v2.052 3.709h-12.351c-2.9 0-5.26 2.359-5.26 5.26v29.298c0 2.9 2.359 5.26 5.26 5.26h46.577c2.9 0 5.26-2.36 5.26-5.26v-29.298c-.001-2.9-2.36-5.26-5.26-5.26zm-32.226-2.709h17.875v2.709h-17.875z" fill="#e6e7e8"/></g><g><path d="m73.903 27.662 6.329 6.329c1.219 1.219 3.205 1.22 4.427 0 1.22-1.221 1.22-3.207 0-4.426l-.851-.851c25.63 7.015 25.03 29.824 24.989 30.871 0 .919.402 1.789 1.103 2.385.57.485 1.29.745 2.032.745.17 0 .342-.014.514-.042 1.489-.242 2.611-1.619 2.61-3.149.016-.3 1.159-29.578-31.098-37.487l1.001-1.001c.591-.591.917-1.377.917-2.214 0-.836-.326-1.622-.917-2.213-1.181-1.182-3.244-1.183-4.426 0l-6.628 6.628c-1.222 1.219-1.222 3.204-.002 4.425z" fill="#e6e7e8"/></g><g><path d="m51.769 98.009c-1.183-1.183-3.245-1.182-4.426 0-.591.591-.917 1.377-.917 2.213s.326 1.622.917 2.213l.851.851c-25.63-7.015-25.029-29.823-24.988-30.87 0-.92-.402-1.789-1.104-2.385-.701-.596-1.627-.856-2.545-.703-1.489.242-2.612 1.619-2.61 3.15-.016.3-1.159 29.577 31.099 37.486l-1.002 1.001c-1.22 1.221-1.22 3.207 0 4.426.591.591 1.377.917 2.213.917s1.622-.326 2.213-.917l6.627-6.627c1.221-1.22 1.221-3.207 0-4.427z" fill="#e6e7e8"/></g></g><g><g><g><g><g><path d="m55.499 17.444h-46.576c-2.353 0-4.26 1.907-4.26 4.26v29.299c0 2.353 1.907 4.26 4.26 4.26h46.576c2.353 0 4.26-1.907 4.26-4.26v-29.299c0-2.353-1.907-4.26-4.26-4.26z" fill="#0089ef"/><g><path d="m55.499 17.444h-46.576c-2.353 0-4.26 1.907-4.26 4.26v3.195c0-2.353 1.907-4.26 4.26-4.26h46.576c2.353 0 4.26 1.907 4.26 4.26v-3.195c0-2.353-1.907-4.26-4.26-4.26z" fill="#fff"/></g><path d="m36.629 37.022h-8.837c-.901 0-1.632.73-1.632 1.631s.73 1.631 1.632 1.631h8.837c.901 0 1.631-.73 1.631-1.631s-.73-1.631-1.631-1.631z" fill="#fa759e"/></g><path d="m40.292 8.826h-16.162c-1.025 0-1.857.831-1.857 1.857v2.052h19.875v-2.052c0-1.025-.831-1.857-1.856-1.857z" fill="#0089ef"/></g><g><g><path d="m115.078 77.355h-46.577c-2.353 0-4.26 1.907-4.26 4.26v29.299c0 2.353 1.907 4.26 4.26 4.26h46.576c2.353 0 4.26-1.907 4.26-4.26v-29.299c.001-2.352-1.907-4.26-4.259-4.26z" fill="#0089ef"/><path d="m96.208 96.933h-8.837c-.901 0-1.631.73-1.631 1.631s.73 1.631 1.631 1.631h8.837c.901 0 1.632-.73 1.632-1.631s-.731-1.631-1.632-1.631z" fill="#fa759e"/></g><path d="m99.87 68.737h-16.161c-1.025 0-1.857.831-1.857 1.857v2.052h19.875v-2.052c0-1.025-.831-1.857-1.857-1.857z" fill="#0089ef"/></g></g><g><path d="m70.61 22.955 6.329 6.329c.832.832 2.18.832 3.012 0s.832-2.181 0-3.012l-3.341-3.341c30.304 6.096 29.185 32.653 29.185 32.653 0 1.294 1.153 2.318 2.488 2.101 1.047-.17 1.772-1.154 1.772-2.215 0 0 1.549-29.706-32.086-36.863l2.28-2.28c.832-.832.832-2.181 0-3.012-.832-.832-2.18-.832-3.012 0l-6.628 6.628c-.831.832-.831 2.18.001 3.012z" fill="#fa759e"/><g><g><g><path d="m53.39 101.045-6.329-6.329c-.832-.832-2.18-.832-3.012 0s-.832 2.181 0 3.012l3.341 3.341c-30.304-6.096-29.185-32.653-29.185-32.653 0-1.294-1.153-2.318-2.488-2.101-1.047.17-1.772 1.154-1.772 2.215 0 0-1.549 29.706 32.086 36.863l-2.28 2.28c-.832.832-.832 2.181 0 3.012.832.832 2.18.832 3.012 0l6.628-6.628c.831-.831.831-2.18-.001-3.012z" fill="#fa759e"/><g fill="#3a2c60"><path d="m42.01 56.263c.552 0 1-.448 1-1s-.448-1-1-1h-6.365c-.552 0-1 .448-1 1s.448 1 1 1z"/><path d="m55.499 16.444h-12.351v-3.709-2.052c0-1.575-1.282-2.857-2.857-2.857h-16.161c-1.575 0-2.856 1.282-2.856 2.857v2.052 3.709h-12.352c-2.9 0-5.26 2.359-5.26 5.26v29.299c0 2.9 2.359 5.26 5.26 5.26h21.716c.552 0 1-.448 1-1s-.448-1-1-1h-21.716c-1.797 0-3.26-1.462-3.26-3.26v-13.072c1.132 1.065 2.652 1.723 4.325 1.723h15.373c.395.956 1.335 1.631 2.432 1.631h8.837c1.097 0 2.037-.675 2.432-1.631h15.373c1.673 0 3.192-.658 4.325-1.722v13.072c0 1.797-1.462 3.26-3.26 3.26h-8.409c-.552 0-1 .448-1 1s.448 1 1 1h8.409c2.9 0 5.26-2.359 5.26-5.26v-29.3c0-2.9-2.36-5.26-5.26-5.26zm-32.226-5.761c0-.473.384-.857.856-.857h16.162c.473 0 .857.384.857.857v1.052h-17.875zm0 3.052h17.875v2.709h-17.875zm13.356 25.55h-8.837c-.348 0-.631-.283-.631-.631s.283-.631.631-.631h8.837c.348 0 .631.283.631.631s-.282.631-.631.631zm17.805-1.632h-15.373c-.395-.956-1.335-1.631-2.432-1.631h-8.837c-1.097 0-2.037.675-2.432 1.631h-15.372c-2.385 0-4.325-1.94-4.325-4.325v-11.624c0-1.797 1.462-3.26 3.26-3.26h46.577c1.797 0 3.26 1.462 3.26 3.26v11.625c-.001 2.384-1.941 4.324-4.326 4.324z"/><path d="m115.078 76.355h-12.351v-3.709-2.052c0-1.575-1.282-2.857-2.857-2.857h-16.162c-1.575 0-2.856 1.282-2.856 2.857v2.052 3.709h-12.351c-2.9 0-5.26 2.359-5.26 5.26v29.298c0 2.9 2.359 5.26 5.26 5.26h46.577c2.9 0 5.26-2.36 5.26-5.26v-17.674-.628-10.996c-.001-2.9-2.36-5.26-5.26-5.26zm-32.226-5.761c0-.473.384-.857.856-.857h16.162c.473 0 .857.384.857.857v1.052h-17.875zm0 3.052h17.875v2.709h-17.875zm-17.611 7.969c0-1.797 1.462-3.26 3.26-3.26h46.577c1.797 0 3.26 1.462 3.26 3.26v10.996.628c0 2.385-1.94 4.325-4.325 4.325h-15.373c-.395-.956-1.335-1.631-2.432-1.631h-8.837c-1.097 0-2.037.675-2.432 1.631h-15.373c-2.385 0-4.325-1.94-4.325-4.325zm31.598 16.949c0 .348-.283.631-.631.631h-8.837c-.349 0-.632-.283-.632-.631s.283-.631.632-.631h8.837c.348 0 .631.283.631.631zm18.239 15.61h-46.577c-1.797 0-3.26-1.462-3.26-3.26v-13.072c1.132 1.065 2.652 1.723 4.325 1.723h15.373c.395.956 1.335 1.631 2.432 1.631h8.837c1.097 0 2.037-.675 2.432-1.631h15.373c1.673 0 3.192-.658 4.325-1.723v13.072c-.001 1.797-1.463 3.26-3.26 3.26z"/><path d="m69.903 23.662 6.329 6.329c1.219 1.219 3.205 1.22 4.427 0 1.22-1.221 1.22-3.207 0-4.426l-.851-.851c25.63 7.015 25.03 29.824 24.989 30.871 0 .919.402 1.789 1.103 2.385.57.485 1.29.745 2.032.745.17 0 .342-.014.514-.042 1.489-.242 2.611-1.619 2.61-3.149.016-.3 1.159-29.578-31.098-37.487l1.001-1.001c.591-.591.917-1.377.917-2.214 0-.836-.326-1.622-.917-2.213-1.181-1.182-3.244-1.183-4.426 0l-6.628 6.628c-1.222 1.219-1.222 3.204-.002 4.425zm1.414-3.012 6.628-6.628c.441-.441 1.158-.44 1.598 0 .213.213.331.497.331.798 0 .302-.118.586-.331.799l-2.28 2.28c-.259.259-.356.64-.252.991.104.352.392.618.751.694 32.375 6.889 31.354 34.655 31.293 35.885 0 .604-.41 1.143-.933 1.228-.344.055-.672-.034-.928-.252-.253-.215-.399-.529-.4-.819.012-.274.799-27.483-29.987-33.676-.066-.013-.132-.02-.198-.02-.363 0-.705.198-.881.528-.208.388-.138.868.174 1.179l3.341 3.341c.44.44.44 1.157 0 1.598s-1.157.441-1.598 0l-6.329-6.329c-.44-.44-.44-1.157.001-1.597z"/><path d="m47.769 94.009c-1.183-1.183-3.245-1.182-4.426 0-.591.591-.917 1.377-.917 2.213s.326 1.622.917 2.213l.851.851c-25.63-7.015-25.029-29.823-24.988-30.87 0-.92-.402-1.789-1.104-2.385-.701-.596-1.627-.856-2.545-.703-1.489.242-2.612 1.619-2.61 3.15-.016.3-1.159 29.577 31.099 37.486l-1.002 1.001c-1.22 1.221-1.22 3.207 0 4.426.591.591 1.377.917 2.213.917s1.622-.326 2.213-.917l6.627-6.627c1.221-1.22 1.221-3.207 0-4.427zm4.914 9.342-6.627 6.627c-.44.44-1.158.44-1.599 0s-.44-1.157 0-1.598l2.28-2.28c.259-.259.356-.639.252-.991s-.392-.618-.751-.694c-32.375-6.889-31.354-34.655-31.294-35.885 0-.604.41-1.143.933-1.229.066-.011.132-.016.197-.016.27 0 .524.092.731.269.253.215.399.53.4.82-.012.274-.799 27.482 29.987 33.675.432.087.871-.119 1.079-.508.208-.388.138-.868-.174-1.179l-3.34-3.34c-.213-.213-.331-.498-.331-.799s.118-.585.332-.799c.426-.427 1.171-.427 1.598 0l6.329 6.329c.439.44.439 1.157-.002 1.598z"/></g></g></g></g></g></g></g></g></svg>