<svg id="Flat" height="512" viewBox="0 0 64 64" width="512" xmlns="http://www.w3.org/2000/svg"><path d="m42 34h10v27h-10z" fill="#937963"/><circle cx="32" cy="9" fill="#039791" r="6"/><path d="m38 39 1-16v10.5a2.5 2.5 0 0 0 2.5 2.5 2.5 2.5 0 0 0 2.5-2.5v-13.5a4 4 0 0 0 -4-4h-16a4 4 0 0 0 -4 4v13.5a2.5 2.5 0 0 0 2.5 2.5 2.5 2.5 0 0 0 2.5-2.5v-10.5l1 16v19a3 3 0 0 0 3 3 3 3 0 0 0 3-3 3 3 0 0 0 3 3 3 3 0 0 0 3-3z" fill="#039791"/><path d="m42 34h19v27h-19z" fill="#d6c2ad"/><path d="m47 56v-22h5v27z" fill="#c7b29e"/><path d="m3 34h22v27h-22z" fill="#f4bb3a"/><path d="m3 34h10v27h-10z" fill="#d6562b"/><path d="m8 56v-22h5v27z" fill="#f09b36"/><path d="m23 34h-2v-4a2 2 0 0 0 -4 0v4h-2v-4a4 4 0 0 1 8 0z" fill="#29485a"/><path d="m12 34h-2v-4a2 2 0 0 0 -4 0v4h-2v-4a4 4 0 0 1 8 0z" fill="#29485a"/><path d="m3 61 5-5 5 5z" fill="#ed7c31"/><path d="m42 61 5-5 5 5z" fill="#b29c88"/><path d="m40 43h-2v-4a2 2 0 0 0 -4 0v4h-2v-4a4 4 0 0 1 8 0z" fill="#29485a"/><path d="m29 43h-2v-4a2 2 0 0 0 -4 0v4h-2v-4a4 4 0 0 1 8 0z" fill="#29485a"/><path d="m20 43h22v18h-22z" fill="#97d7d9"/><path d="m20 43h10v18h-10z" fill="#6ac9cd"/><path d="m20 61 5-5 5 5z" fill="#4ec3c7"/><path d="m25 56v-13h5v18z" fill="#81d0d3"/><g fill="#29485a"><path d="m60 34h-2v-4a2 2 0 0 0 -4 0v4h-2v-4a4 4 0 0 1 8 0z"/><path d="m51 34h-2v-4a2 2 0 0 0 -4 0v4h-2v-4a4 4 0 0 1 8 0z"/></g></svg>