<svg id="Layer_1" enable-background="new 0 0 128 128" height="512" viewBox="0 0 128 128" width="512" xmlns="http://www.w3.org/2000/svg"><g><g><path d="m114.299 83.762h-12.351v-3.709-2.052c0-1.575-1.281-2.857-2.856-2.857h-16.162c-1.575 0-2.857 1.282-2.857 2.857v2.052 3.709h-1.766c-4.068-5.128-9.766-8.902-16.309-10.528-.007-.001-.013-.004-.021-.005-.967-.239-1.951-.432-2.952-.575 6.294-3.101 11.01-8.924 12.612-15.923.306.09.617.149.93.149 2.45 0 4.369-2.529 4.369-5.757 0-1.651-.504-3.116-1.323-4.157v-12.08c0-6.659-3.126-12.577-7.978-16.403h.027l-13.175-10.174.266 3.489-6.125-4.378-5.063 4.233-.313-2.563-4 3.938v-2.25l-10.294 8.25c-4.472 3.832-7.316 9.51-7.316 15.862v12.08c-.818 1.04-1.323 2.505-1.323 4.157 0 3.228 1.919 5.757 4.369 5.757.313 0 .623-.059.93-.149 1.602 6.999 6.318 12.822 12.612 15.923-1.002.143-1.988.335-2.955.575-.004.001-.009.002-.013.003-13.089 3.25-22.821 15.094-22.821 29.174v18.173c0 1.654 1.346 3 3 3h98.857c2.9 0 5.26-2.359 5.26-5.26v-29.301c.001-2.9-2.359-5.26-5.259-5.26zm-32.226-2.709h17.875v2.709h-17.875z" fill="#e6e7e8"/></g><g><g><g><path d="m50.752 70.346h-12.249c-16.05 0-29.062 13.011-29.062 29.062v18.173c0 1.105.895 2 2 2h66.373c1.105 0 2-.895 2-2v-18.173c0-16.051-13.011-29.062-29.062-29.062z" fill="#6dc9f7"/><g><path d="m51.68 70.369-7.052 4.489 5.698 8.266 7.498-11.908c-1.976-.493-4.032-.78-6.144-.847z" fill="#d4fbff"/></g><g><path d="m44.628 71.074c-3.031 0-5.921-.601-8.563-1.683v.011l8.563 5.456 8.571-5.456v-.015c-2.644 1.085-5.537 1.687-8.571 1.687z" fill="#fff"/></g><g><g><path d="m44.628 74.858-4.059 5.889 1.647 5.165h4.823l1.648-5.165z" fill="#fa759e"/></g></g><path d="m44.628 116.947 4.805-5.212-2.393-25.823h-4.824l-2.393 25.823z" fill="#fa759e"/><g><path d="m31.432 71.217 7.498 11.908 5.698-8.266-7.052-4.489c-2.112.066-4.169.353-6.144.847z" fill="#d4fbff"/></g></g><g><g><path d="m68.566 43.369c-.473 0-.922.14-1.33.388v4.709c0 1.289-.114 2.552-.321 3.782.49.392 1.048.634 1.651.634 1.861 0 3.369-2.13 3.369-4.757s-1.508-4.756-3.369-4.756z" fill="#fff"/></g><g><path d="m22.019 48.466v-4.709c-.408-.248-.857-.388-1.33-.388-1.861 0-3.369 2.13-3.369 4.757s1.508 4.757 3.369 4.757c.603 0 1.161-.242 1.651-.634-.207-1.232-.321-2.494-.321-3.783z" fill="#fff"/></g></g><path d="m58.036 25.673h-.678c-3.05 0-5.996 1.107-8.291 3.115-2.542 2.224-6.338 2.224-8.879 0-2.295-2.008-5.241-3.115-8.291-3.115h-.678c-5.081 0-9.2 4.119-9.2 9.2v13.593c0 12.486 10.122 22.608 22.608 22.608 12.486 0 22.608-10.122 22.608-22.608v-13.593c.001-5.081-4.118-9.2-9.199-9.2z" fill="#fff"/></g><g><g><path d="m110.299 81.762h-46.577c-2.353 0-4.26 1.907-4.26 4.26v29.299c0 2.353 1.907 4.26 4.26 4.26h46.576c2.353 0 4.26-1.907 4.26-4.26v-29.299c.001-2.353-1.907-4.26-4.259-4.26z" fill="#0089ef"/><g><path d="m110.299 81.762h-46.577c-2.353 0-4.26 1.907-4.26 4.26v3c0-2.353 1.907-4.26 4.26-4.26h46.576c2.353 0 4.26 1.907 4.26 4.26v-3c.001-2.353-1.907-4.26-4.259-4.26z" fill="#fff"/></g><path d="m91.429 101.34h-8.837c-.901 0-1.632.73-1.632 1.631 0 .901.73 1.631 1.632 1.631h8.837c.901 0 1.631-.73 1.631-1.631.001-.901-.73-1.631-1.631-1.631z" fill="#fa759e"/></g><path d="m95.091 73.144h-16.161c-1.025 0-1.857.831-1.857 1.857v2.052h19.875v-2.052c0-1.026-.831-1.857-1.857-1.857z" fill="#0089ef"/><g fill="#3a2c60"><path d="m26.628 113.419c.552 0 1-.448 1-1v-5.5c0-.552-.448-1-1-1s-1 .448-1 1v5.5c0 .553.448 1 1 1z"/><path d="m26.628 103.971c.552 0 1-.448 1-1v-4.414c0-.552-.448-1-1-1s-1 .448-1 1v4.414c0 .552.448 1 1 1z"/><path d="m34.653 43.04c-1.249 0-2.261 1.012-2.261 2.261s1.012 2.261 2.261 2.261 2.261-1.012 2.261-2.261c0-1.248-1.012-2.261-2.261-2.261z"/><path d="m54.602 43.04c-1.249 0-2.261 1.012-2.261 2.261s1.012 2.261 2.261 2.261 2.261-1.012 2.261-2.261c0-1.248-1.012-2.261-2.261-2.261z"/><path d="m44.628 56.364c1.969 0 3.571-1.602 3.571-3.571v-1.507c0-.552-.448-1-1-1s-1 .448-1 1v1.507c0 .866-.705 1.571-1.571 1.571s-1.571-.705-1.571-1.571v-1.507c0-.552-.448-1-1-1s-1 .448-1 1v1.507c0 1.969 1.602 3.571 3.571 3.571z"/><path d="m52.882 40.923 4.427.771c.058.01.116.015.172.015.477 0 .899-.342.984-.829.095-.544-.27-1.062-.814-1.157l-4.427-.771c-.545-.09-1.062.271-1.157.814-.094.544.27 1.062.815 1.157z"/><path d="m36.031 38.952-4.427.771c-.544.095-.909.613-.814 1.157.085.486.507.829.984.829.057 0 .115-.005.172-.015l4.427-.771c.544-.095.909-.613.814-1.157-.094-.543-.61-.904-1.156-.814z"/><path d="m50.434 59.563c.333-.44.247-1.067-.193-1.401-.441-.335-1.069-.247-1.401.193-.015.02-1.485 1.918-4.212 1.918-2.749 0-4.139-1.819-4.203-1.905-.324-.444-.947-.542-1.392-.221-.448.323-.549.948-.226 1.396.081.112 2.013 2.729 5.821 2.729 3.71.001 5.723-2.599 5.806-2.709z"/><path d="m110.299 80.762h-12.351v-3.709-2.052c0-1.575-1.281-2.857-2.856-2.857h-16.162c-1.575 0-2.857 1.282-2.857 2.857v2.052 3.709h-1.778c-4.675-5.888-11.502-9.99-19.286-11.099 6.302-3.099 11.024-8.926 12.627-15.931.306.09.617.149.93.149 2.45 0 4.369-2.529 4.369-5.757 0-1.651-.504-3.116-1.323-4.156v-12.08c0-6.659-3.126-12.577-7.978-16.403h.027l-13.174-10.176.266 3.489-6.125-4.378-5.063 4.233-.313-2.563-4 3.938v-2.25l-10.294 8.25c-4.472 3.832-7.316 9.51-7.316 15.862v12.08c-.818 1.04-1.323 2.505-1.323 4.157 0 3.228 1.919 5.757 4.369 5.757.313 0 .623-.059.93-.149 1.603 7.006 6.327 12.833 12.63 15.932-14.566 2.071-25.807 14.61-25.807 29.741v18.173c0 1.654 1.346 3 3 3h52.281 14.092 32.485c2.9 0 5.26-2.359 5.26-5.26v-17.675-.629-10.995c0-2.9-2.36-5.26-5.26-5.26zm3.26 5.26v10.996.629c0 2.385-1.94 4.325-4.325 4.325h-15.373c-.395-.956-1.335-1.631-2.432-1.631h-8.837c-1.097 0-2.037.675-2.432 1.631h-15.373c-2.385 0-4.325-1.94-4.325-4.325v-.629-10.996c0-1.797 1.462-3.26 3.26-3.26h46.577c1.797 0 3.26 1.463 3.26 3.26zm-21.498 16.949c0 .348-.283.631-.631.631h-8.837c-.348 0-.631-.283-.631-.631s.283-.631.631-.631h8.837c.347 0 .631.283.631.631zm-13.988-27.97c0-.473.384-.857.857-.857h16.162c.472 0 .856.384.856.857v1.052h-17.875zm0 3.052h17.875v2.709h-17.875zm-33.445-4.38-2.777-1.767c.911.107 1.837.169 2.777.169s1.865-.061 2.776-.169zm-7.333-2.296 5.92 3.768-4.248 6.162-5.933-9.422c1.387-.275 2.81-.446 4.261-.508zm5.832 15.535h3l2.268 24.473-3.768 4.087-3.769-4.087zm3.182-2h-3.362l-1.276-4.002 2.957-4.29 2.957 4.29zm-.269-9.767 5.914-3.764c1.453.062 2.875.236 4.263.511l-5.929 9.415zm21.963-23.403c.149-1.071.232-2.164.232-3.276v-4.048c.11-.026.22-.049.33-.049 1.284 0 2.369 1.72 2.369 3.756.001 2.331-1.43 4.263-2.931 3.617zm-49.683-3.617c0-2.036 1.085-3.756 2.369-3.756.11 0 .22.023.33.049v4.048c0 1.112.083 2.205.232 3.276-1.499.646-2.931-1.286-2.931-3.617zm4.7.341v-13.593c0-4.521 3.678-8.2 8.2-8.2h.678c2.808 0 5.519 1.019 7.632 2.868 2.906 2.543 7.29 2.544 10.197 0 2.114-1.849 4.824-2.868 7.632-2.868h.678c4.521 0 8.2 3.678 8.2 8.2v13.593c0 11.915-9.693 21.608-21.608 21.608-11.916 0-21.609-9.693-21.609-21.608zm-12.579 69.115v-18.173c0-12.868 8.709-23.733 20.54-27.029l7.102 11.279c.179.285.489.46.825.467h.021c.329 0 .636-.161.823-.433l.482-.699.966 3.03-2.374 25.621c-.026.282.068.562.26.77l4.805 5.212c.189.206.456.322.735.322s.546-.117.735-.322l4.805-5.212c.192-.208.287-.488.26-.77l-2.374-25.621.966-3.03.482.7c.187.271.495.433.823.433h.021c.336-.007.646-.183.825-.467l7.101-11.278c5.253 1.465 9.888 4.42 13.421 8.383h-7.971c-2.9 0-5.26 2.359-5.26 5.26v10.996.629 17.674c0 1.237.447 2.361 1.164 3.26h-31.996v-2.536c0-.552-.448-1-1-1s-1 .448-1 1v2.536h-14.187c-.551-.002-1-.451-1-1.002zm99.858 1h-46.577c-1.797 0-3.26-1.462-3.26-3.26v-13.072c1.132 1.065 2.652 1.722 4.325 1.722h15.373c.395.956 1.335 1.631 2.432 1.631h8.837c1.097 0 2.037-.675 2.432-1.631h15.373c1.673 0 3.192-.658 4.325-1.722v13.072c0 1.797-1.463 3.26-3.26 3.26z"/></g></g></g></g></svg>