<svg height="480pt" viewBox="0 0 480 480" width="480pt" xmlns="http://www.w3.org/2000/svg"><path d="m0 96h416v384h-416zm0 0" fill="#b8cbd9"/><path d="m0 393.039062c35.566406 19.703126 76.464844 30.960938 120 30.960938 136.96875 0 248-111.03125 248-248 0-28-4.710938-54.886719-13.265625-80h-354.734375zm0 0" fill="#e8eff4"/><path d="m176 240h288c8.839844 0 16 7.160156 16 16v176c0 8.839844-7.160156 16-16 16h-288c-8.839844 0-16-7.160156-16-16v-176c0-8.839844 7.160156-16 16-16zm0 0" fill="#976947"/><path d="m288 320v32h64v-32" fill="#674025"/><path d="m304 352v16c0 8.839844 7.160156 16 16 16s16-7.160156 16-16v-16" fill="#c18e59"/><path d="m208 320h32v128h-32zm0 0" fill="#674025"/><path d="m400 320h32v128h-32zm0 0" fill="#674025"/><path d="m192 352h64v32h-64zm0 0" fill="#c18e59"/><path d="m384 352h64v32h-64zm0 0" fill="#c18e59"/><path d="m0 0h416v96h-416zm0 0" fill="#4472b2"/><path d="m64 48c0 8.835938-7.164062 16-16 16s-16-7.164062-16-16 7.164062-16 16-16 16 7.164062 16 16zm0 0" fill="#f0d365"/><path d="m128 48c0 8.835938-7.164062 16-16 16s-16-7.164062-16-16 7.164062-16 16-16 16 7.164062 16 16zm0 0" fill="#f0d365"/><path d="m192 48c0 8.835938-7.164062 16-16 16s-16-7.164062-16-16 7.164062-16 16-16 16 7.164062 16 16zm0 0" fill="#f0d365"/><path d="m392 248h-16v-32c0-13.230469-10.769531-24-24-24h-64c-13.230469 0-24 10.769531-24 24v32h-16v-32c0-22.054688 17.945312-40 40-40h64c22.054688 0 40 17.945312 40 40zm0 0" fill="#674025"/><g fill="#b8b9b3"><path d="m24 120h208v16h-208zm0 0"/><path d="m24 152h208v16h-208zm0 0"/><path d="m24 184h208v16h-208zm0 0"/><path d="m24 216h112v16h-112zm0 0"/><path d="m24 248h112v16h-112zm0 0"/><path d="m24 280h112v16h-112zm0 0"/></g><path d="m464 240h-288c-8.839844 0-16 7.160156-16 16v40l24 24h272l24-24v-40c0-8.839844-7.160156-16-16-16zm0 0" fill="#c18e59"/></svg>