<svg id="Capa_1" enable-background="new 0 0 512 512" height="512" viewBox="0 0 512 512" width="512" xmlns="http://www.w3.org/2000/svg"><g><g><path d="m27.5 7.5h331c11.046 0 20 8.954 20 20v457c0 11.046-14.369 12.5-25.415 12.5l-318.638 3.106c-11.046 0-20-8.954-20-20l1.617-444.604c0-11.046.39-28.002 11.436-28.002z" fill="#faf8f8"/><g><path d="m82.5 272v20c0 2.76-1.12 5.26-2.93 7.07l-22.655-10.613-11.485-23.527c1.81-1.81 4.31-2.93 7.07-2.93h20c5.52 0 10 4.48 10 10z" fill="#5d748a"/><path d="m79.57 299.07c-1.81 1.81-4.31 2.93-7.07 2.93h-20c-5.52 0-10-4.48-10-10v-20c0-2.76 1.12-5.26 2.93-7.07z" fill="#3f597d"/></g><g><path d="m82.5 399.5v20c0 2.76-1.12 5.26-2.93 7.07l-22.655-10.613-11.485-23.527c1.81-1.81 4.31-2.93 7.07-2.93h20c5.52 0 10 4.48 10 10z" fill="#5d748a"/><path d="m79.57 426.57c-1.81 1.81-4.31 2.93-7.07 2.93h-20c-5.52 0-10-4.48-10-10v-20c0-2.76 1.12-5.26 2.93-7.07z" fill="#3f597d"/></g><g><path d="m460.908 63.504-27.755-1.1.34-43.915c0-5.523.528-10.989 6.051-10.989h14.698c5.523 0 10 4.477 10 10v30.14z" fill="#5d748a"/><path d="m464.239 47.64v16l-19.256 8.892-15.434-8.892v-46.14c0-5.52 4.47-10 10-10h5v36.14c0 2.209 1.791 4 4 4z" fill="#3f597d"/><g><path d="m446.891 512c-4.142 0-7.5-3.358-7.5-7.5v-13.883c0-4.142 3.358-7.5 7.5-7.5s7.5 3.358 7.5 7.5v13.883c0 4.142-3.358 7.5-7.5 7.5z" fill="#5d748a"/></g><path d="m468.049 426.5-47.322 7.5 2.412-343.5c0-5.523-1.768-26.864 3.755-26.864h40c5.523 0 10 4.477 10 10v220.744z" fill="#ffbf54"/><path d="m415.391 409.234v24.975c0 3.977 5.343 7.217 5.343 7.217l-2.093 6.573 15.714 39.548c.778 1.859 2.597 3.07 4.612 3.07h15.847c2.016 0 3.834-1.21 4.612-3.07l16.638-41.756c1.535-3.668 2.326-7.605 2.326-11.582v-24.976l-31.5-3z" fill="#ffbf54"/><path d="m453.969 490.62h-15c-2.02 0-3.84-1.21-4.61-3.07l-15.72-39.55 2.095-6.574c-1.54-3.67-5.345-3.236-5.345-7.216v-24.98l7.759-3 7.241 3v24.98c0 3.98.79 7.91 2.33 11.58l.92 2.21 15.72 39.55c.77 1.86 2.59 3.07 4.61 3.07z" fill="#ffa442"/><path d="m440.889 63.64c-5.52 0-10 4.47-10 10v219.86l-6.757 5.33c-.94 0-6.563-5-7.243-4.45v-220.74c0-5.53 4.48-10 10-10z" fill="#ffa442"/><path d="m487.391 401.234v-16.154l-1-7.5 1-7.5v-14.52l-1-7.5 1-7.5v-15l-1-7.5 1-7.5v-14.91l-1-7.5 1-7.5v-16.15c0-4.418-3.582-8-8-8h-65c-4.418 0-8 3.582-8 8v16.15l1 7.5-1 7.5v14.91l1 7.5-1 7.5v15l1 8.717-1 6.283v14.52l1 7.5-1 7.5v16.154c0 4.418 3.582 8 8 8h65c4.419 0 8-3.582 8-8z" fill="#5d748a"/><path d="m429.389 409.23h-15c-4.42 0-8-3.58-8-8v-16.15l1-7.5-1-7.5v-14.52l1-6.28-1-8.72v-15l1-7.5-1-7.5v-14.91l1-7.5-1-7.5v-16.15c0-4.42 3.58-8 8-8h15c-4.42 0-8 3.58-8 8v136.73c0 4.42 3.58 8 8 8z" fill="#3f597d"/></g><path d="m80.362 77.809.936-13.106c0-5.523.477-9.319 6-9.319l5.202-3.016h205.996c5.523 0 10 4.477 10 10v12.632l-4.39 1.787c0 5.523-4.477 10-10 10l-203.744 1.022c-5.523 0-10-4.478-10-10z" fill="#aad8de"/><path d="m308.5 75v5c0 5.53-4.48 10-10 10h-211c-5.52 0-10-4.47-10-10v-17.63c0-5.53 4.48-10 10-10h5v15.63c0 3.87 3.14 7 7 7z" fill="#94ccd4"/><g><path d="m82.5 144.5v20c0 2.76-1.12 5.26-2.93 7.07l-22.655-10.613-11.485-23.527c1.81-1.81 4.31-2.93 7.07-2.93h20c5.52 0 10 4.48 10 10z" fill="#5d748a"/><path d="m79.57 171.57c-1.81 1.81-4.31 2.93-7.07 2.93h-20c-5.52 0-10-4.48-10-10v-20c0-2.76 1.12-5.26 2.93-7.07z" fill="#3f597d"/></g></g><g><path d="m487.151 56.137h-15.408v-38.637c0-9.649-7.851-17.5-17.5-17.5h-14.698c-9.649 0-17.5 7.851-17.5 17.5v39.335c-7.295 2.109-12.651 8.836-12.651 16.802v176.207c-6.098 2.086-10.5 7.861-10.5 14.657v136.733c0 6.224 3.695 11.588 9 14.052v18.923c0 4.996.978 9.867 2.907 14.478l16.638 39.755c1.525 3.77 6.452 7.854 11.955 7.676v8.383c0 4.143 3.358 7.5 7.5 7.5s7.5-3.357 7.5-7.5v-8.383c4.137.145 9.687-2.484 11.954-7.675l16.639-39.757c1.929-4.609 2.907-9.48 2.907-14.477v-18.923c5.305-2.464 9-7.828 9-14.052v-136.734c0-6.796-4.402-12.57-10.5-14.657v-37.843c0-4.143-3.358-7.5-7.5-7.5s-7.5 3.357-7.5 7.5v37h-45v-175.363c0-1.379 1.122-2.5 2.5-2.5h40c1.378 0 2.5 1.121 2.5 2.5v103.363c0 4.143 3.358 7.5 7.5 7.5s7.5-3.357 7.5-7.5c-.21-5.306.397-100.078-.2-105.863h2.957c5.431 0 9.849 4.418 9.849 9.849v124.664c0 4.143 3.358 7.5 7.5 7.5s7.5-3.357 7.5-7.5v-124.665c0-13.701-11.147-24.848-24.849-24.848zm-47.607-41.137h14.698c1.378 0 2.5 1.121 2.5 2.5v38.637h-19.698v-38.637c0-1.379 1.122-2.5 2.5-2.5zm39.85 249c.276 0 .5.225.5.5v16.154h-13.685c-4.142 0-7.5 3.357-7.5 7.5s3.358 7.5 7.5 7.5h13.685v14.909h-13.685c-4.142 0-7.5 3.357-7.5 7.5s3.358 7.5 7.5 7.5h13.685v15h-13.685c-4.142 0-7.5 3.357-7.5 7.5s3.358 7.5 7.5 7.5h13.685v14.516h-13.685c-4.142 0-7.5 3.357-7.5 7.5s3.358 7.5 7.5 7.5h13.685v16.154c0 .275-.224.5-.5.5h-65c-.276 0-.5-.225-.5-.5v-16.154h13.685c4.142 0 7.5-3.357 7.5-7.5s-3.358-7.5-7.5-7.5h-13.685v-14.516h13.685c4.142 0 7.5-3.357 7.5-7.5s-3.358-7.5-7.5-7.5h-13.685v-15h13.685c4.142 0 7.5-3.357 7.5-7.5s-3.358-7.5-7.5-7.5h-13.685v-14.909h13.685c4.142 0 7.5-3.357 7.5-7.5s-3.358-7.5-7.5-7.5h-13.685v-16.154c0-.275.224-.5.5-.5zm-8.5 169h-48v-16.267h48zm-17.741 48.117h-12.519l-13.86-33.117h40.239z"/><path d="m439.394 110.5v95c0 4.143 3.358 7.5 7.5 7.5s7.5-3.357 7.5-7.5v-95c0-4.143-3.358-7.5-7.5-7.5s-7.5 3.357-7.5 7.5z"/><path d="m358.5 0h-268.5c-4.142 0-7.5 3.357-7.5 7.5s3.358 7.5 7.5 7.5h268.5c6.893 0 12.5 5.607 12.5 12.5v457c0 6.893-5.607 12.5-12.5 12.5h-331c-6.893 0-12.5-5.607-12.5-12.5v-457c0-6.893 5.607-12.5 12.5-12.5h26.317c4.142 0 7.5-3.357 7.5-7.5s-3.358-7.5-7.5-7.5h-26.317c-15.164 0-27.5 12.336-27.5 27.5v457c0 15.164 12.336 27.5 27.5 27.5h331c15.164 0 27.5-12.336 27.5-27.5v-457c0-15.164-12.336-27.5-27.5-27.5z"/><path d="m87.503 97.505h135.497c4.142 0 7.5-3.357 7.5-7.5s-3.358-7.5-7.5-7.5h-135.497c-1.378 0-2.5-1.121-2.5-2.5v-17.638c0-1.379 1.122-2.5 2.5-2.5h210.993c1.378 0 2.5 1.121 2.5 2.5v17.638c0 1.379-1.122 2.5-2.5 2.5h-40.496c-4.142 0-7.5 3.357-7.5 7.5s3.358 7.5 7.5 7.5h40.497c9.649 0 17.5-7.851 17.5-17.5v-17.638c0-9.649-7.851-17.5-17.5-17.5h-210.994c-9.649 0-17.5 7.851-17.5 17.5v17.638c0 9.649 7.851 17.5 17.5 17.5z"/><path d="m90 144.5c0-9.649-7.851-17.5-17.5-17.5h-20c-9.649 0-17.5 7.851-17.5 17.5v20c0 9.649 7.851 17.5 17.5 17.5h20c9.649 0 17.5-7.851 17.5-17.5zm-15 20c0 1.379-1.122 2.5-2.5 2.5h-20c-1.378 0-2.5-1.121-2.5-2.5v-20c0-1.379 1.122-2.5 2.5-2.5h20c1.378 0 2.5 1.121 2.5 2.5z"/><path d="m343.5 127h-196c-4.142 0-7.5 3.357-7.5 7.5s3.358 7.5 7.5 7.5h196c4.142 0 7.5-3.357 7.5-7.5s-3.358-7.5-7.5-7.5z"/><path d="m343.5 162h-106.5c-4.142 0-7.5 3.357-7.5 7.5s3.358 7.5 7.5 7.5h106.5c4.142 0 7.5-3.357 7.5-7.5s-3.358-7.5-7.5-7.5z"/><path d="m117.5 177h84.5c4.142 0 7.5-3.357 7.5-7.5s-3.358-7.5-7.5-7.5h-84.5c-4.142 0-7.5 3.357-7.5 7.5s3.358 7.5 7.5 7.5z"/><path d="m117.5 212h176c4.142 0 7.5-3.357 7.5-7.5s-3.358-7.5-7.5-7.5h-176c-4.142 0-7.5 3.357-7.5 7.5s3.358 7.5 7.5 7.5z"/><path d="m90 272c0-9.649-7.851-17.5-17.5-17.5h-20c-9.649 0-17.5 7.851-17.5 17.5v20c0 9.649 7.851 17.5 17.5 17.5h20c9.649 0 17.5-7.851 17.5-17.5zm-15 20c0 1.379-1.122 2.5-2.5 2.5h-20c-1.378 0-2.5-1.121-2.5-2.5v-20c0-1.379 1.122-2.5 2.5-2.5h20c1.378 0 2.5 1.121 2.5 2.5z"/><path d="m343.5 254.5h-196c-4.142 0-7.5 3.357-7.5 7.5s3.358 7.5 7.5 7.5h196c4.142 0 7.5-3.357 7.5-7.5s-3.358-7.5-7.5-7.5z"/><path d="m343.5 289.5h-226c-4.142 0-7.5 3.357-7.5 7.5s3.358 7.5 7.5 7.5h226c4.142 0 7.5-3.357 7.5-7.5s-3.358-7.5-7.5-7.5z"/><path d="m117.5 339.5h84c4.142 0 7.5-3.357 7.5-7.5s-3.358-7.5-7.5-7.5h-84c-4.142 0-7.5 3.357-7.5 7.5s3.358 7.5 7.5 7.5z"/><path d="m72.5 382h-20c-9.649 0-17.5 7.851-17.5 17.5v20c0 9.649 7.851 17.5 17.5 17.5h20c9.649 0 17.5-7.851 17.5-17.5v-20c0-9.649-7.851-17.5-17.5-17.5zm2.5 37.5c0 1.379-1.122 2.5-2.5 2.5h-20c-1.378 0-2.5-1.121-2.5-2.5v-20c0-1.379 1.122-2.5 2.5-2.5h20c1.378 0 2.5 1.121 2.5 2.5z"/><path d="m343.5 382h-196c-4.142 0-7.5 3.357-7.5 7.5s3.358 7.5 7.5 7.5h196c4.142 0 7.5-3.357 7.5-7.5s-3.358-7.5-7.5-7.5z"/><path d="m343.5 417h-44.5c-4.142 0-7.5 3.357-7.5 7.5s3.358 7.5 7.5 7.5h44.5c4.142 0 7.5-3.357 7.5-7.5s-3.358-7.5-7.5-7.5z"/><path d="m117.5 432h146.5c4.142 0 7.5-3.357 7.5-7.5s-3.358-7.5-7.5-7.5h-146.5c-4.142 0-7.5 3.357-7.5 7.5s3.358 7.5 7.5 7.5z"/><path d="m117.5 467h150c4.142 0 7.5-3.357 7.5-7.5s-3.358-7.5-7.5-7.5h-150c-4.142 0-7.5 3.357-7.5 7.5s3.358 7.5 7.5 7.5z"/></g></g></svg>