<svg height="512" viewBox="0 0 256 256" width="512" xmlns="http://www.w3.org/2000/svg"><rect fill="#cecece" height="151.106" rx="13.665" width="219.26" x="18.37" y="31.283"/><path d="m28.37 168.724v-123.776a13.681 13.681 0 0 1 13.665-13.665h-10a13.681 13.681 0 0 0 -13.665 13.665v123.776a13.681 13.681 0 0 0 13.665 13.665h10a13.681 13.681 0 0 1 -13.665-13.665z" fill="#afafaf"/><path d="m227.63 168.724v-123.776a13.681 13.681 0 0 0 -13.665-13.665h10a13.681 13.681 0 0 1 13.665 13.665v123.776a13.681 13.681 0 0 1 -13.665 13.665h-10a13.681 13.681 0 0 0 13.665-13.665z" fill="#e2e2e2"/><rect fill="#63bce7" height="122.288" rx="5.256" width="202.442" x="26.779" y="39.692"/><path d="m36.779 156.724v-111.777a5.271 5.271 0 0 1 5.256-5.256h-10a5.271 5.271 0 0 0 -5.256 5.256v111.777a5.271 5.271 0 0 0 5.256 5.256h10a5.271 5.271 0 0 1 -5.256-5.256z" fill="#6377e7"/><path d="m219.221 156.724v-111.777a5.271 5.271 0 0 0 -5.256-5.256h10a5.271 5.271 0 0 1 5.256 5.256v111.777a5.271 5.271 0 0 1 -5.256 5.256h-10a5.271 5.271 0 0 0 5.256-5.256z" fill="#63e2e7"/><path d="m89.809 204.547h76.383v9.197h-76.383z" fill="#9e9e9e"/><path d="m89.809 204.547h10v9.197h-10z" fill="#707070"/><path d="m100.67 182.389h54.659v22.158h-54.659z" fill="#cecece"/><path d="m100.67 182.389h10v22.158h-10z" fill="#afafaf"/><rect fill="#f8af23" height="137.164" rx="5" width="83.583" x="121.871" y="76.58"/><path d="m121.871 208.744a5 5 0 0 0 5 5h73.583a5 5 0 0 0 5-5v-13.333h-83.583z" fill="#9e9e9e"/><path d="m205.455 81.58a5 5 0 0 0 -5-5h-73.584a5 5 0 0 0 -5 5v5.5h83.583z" fill="#9e9e9e"/><circle cx="163.663" cy="204.578" fill="#3f3679" r="4.708"/><rect fill="#f46275" height="9.552" rx="3.412" width="55.95" x="135.688" y="104.766"/><rect fill="#f46275" height="9.552" rx="3.412" width="55.95" x="135.688" y="123.268"/><rect fill="#f46275" height="9.552" rx="3.412" width="55.95" x="135.688" y="141.771"/><path d="m135.688 159.801h55.95v25.757h-55.95z" fill="#63bce7"/><path d="m135.688 185.559 27.975-22.918 27.975 22.918z" fill="#f8af23"/><path d="m177.078 173.631 7.168-5.873 7.392 6.056v11.745z" fill="#f46275"/><path d="m48.177 59.023h55.95v25.757h-55.95z" fill="#f46275"/><path d="m48.177 84.78 27.975-22.917 27.975 22.917z" fill="#f8af23"/><rect fill="#f8af23" height="9.552" rx="3.412" width="55.95" x="48.177" y="96.535"/><rect fill="#f8af23" height="9.552" rx="3.412" width="55.95" x="48.177" y="115.037"/><rect fill="#f8af23" height="9.552" rx="3.412" width="55.95" x="48.177" y="133.54"/><g fill="#3f3679"><path d="m27.323 223.217h-18a1.5 1.5 0 1 0 0 3h18a1.5 1.5 0 1 0 0-3z"/><path d="m246.68 223.217h-18a1.5 1.5 0 0 0 0 3h18a1.5 1.5 0 1 0 0-3z"/><path d="m218.479 223.217h-180.958a1.5 1.5 0 0 0 0 3h180.958a1.5 1.5 0 0 0 0-3z"/><path d="m9.32 215.244h237.36a1.5 1.5 0 0 0 0-3h-40.757a6.455 6.455 0 0 0 1.032-3.5v-24.855h17.011a15.182 15.182 0 0 0 15.165-15.165v-123.776a15.182 15.182 0 0 0 -15.165-15.165h-191.931a15.182 15.182 0 0 0 -15.165 15.165v123.776a15.182 15.182 0 0 0 15.165 15.165h67.135v19.158h-9.361a1.5 1.5 0 0 0 -1.5 1.5v7.7h-78.989a1.5 1.5 0 1 0 0 3zm114.051-126.666h80.583v105.333h-80.583zm80.583-3h-80.583v-4a3.5 3.5 0 0 1 3.5-3.5h73.583a3.5 3.5 0 0 1 3.5 3.5zm3 1.5v-5.5a6.508 6.508 0 0 0 -6.5-6.5h-73.583a6.508 6.508 0 0 0 -6.5 6.5v78.9h-88.336a3.76 3.76 0 0 1 -3.756-3.755v-111.776a3.76 3.76 0 0 1 3.756-3.756h191.93a3.76 3.76 0 0 1 3.756 3.756v111.777a3.76 3.76 0 0 1 -3.756 3.755h-17.01zm-40.763 125.166h-39.32a3.5 3.5 0 0 1 -3.5-3.5v-11.833h80.583v11.833a3.5 3.5 0 0 1 -3.5 3.5zm-146.321-43.52v-123.776a12.179 12.179 0 0 1 12.165-12.165h191.93a12.179 12.179 0 0 1 12.165 12.165v123.776a12.178 12.178 0 0 1 -12.165 12.165h-17.01v-17.41h17.011a6.763 6.763 0 0 0 6.756-6.755v-111.777a6.764 6.764 0 0 0 -6.756-6.756h-191.931a6.764 6.764 0 0 0 -6.756 6.756v111.777a6.763 6.763 0 0 0 6.756 6.755h88.336v17.409h-88.336a12.178 12.178 0 0 1 -12.165-12.164zm82.3 15.165h18.2v19.158h-18.2zm-10.861 22.158h29.063v2.7a6.455 6.455 0 0 0 1.032 3.5h-30.095z"/><path d="m188.226 103.266h-49.126a4.917 4.917 0 0 0 -4.912 4.912v2.729a4.917 4.917 0 0 0 4.912 4.912h49.126a4.917 4.917 0 0 0 4.912-4.912v-2.729a4.917 4.917 0 0 0 -4.912-4.912zm1.912 7.641a1.914 1.914 0 0 1 -1.912 1.912h-49.126a1.914 1.914 0 0 1 -1.912-1.912v-2.729a1.914 1.914 0 0 1 1.912-1.912h49.126a1.914 1.914 0 0 1 1.912 1.912z"/><path d="m188.226 121.768h-49.126a4.917 4.917 0 0 0 -4.912 4.912v2.729a4.917 4.917 0 0 0 4.912 4.912h49.126a4.917 4.917 0 0 0 4.912-4.912v-2.729a4.917 4.917 0 0 0 -4.912-4.912zm1.912 7.641a1.914 1.914 0 0 1 -1.912 1.912h-49.126a1.914 1.914 0 0 1 -1.912-1.912v-2.729a1.914 1.914 0 0 1 1.912-1.912h49.126a1.914 1.914 0 0 1 1.912 1.912z"/><path d="m188.226 140.271h-49.126a4.917 4.917 0 0 0 -4.912 4.912v2.729a4.917 4.917 0 0 0 4.912 4.912h49.126a4.917 4.917 0 0 0 4.912-4.912v-2.729a4.917 4.917 0 0 0 -4.912-4.912zm1.912 7.641a1.914 1.914 0 0 1 -1.912 1.912h-49.126a1.914 1.914 0 0 1 -1.912-1.912v-2.729a1.914 1.914 0 0 1 1.912-1.912h49.126a1.914 1.914 0 0 1 1.912 1.912z"/><path d="m191.638 158.3h-55.95a1.5 1.5 0 0 0 -1.5 1.5v25.757a1.5 1.5 0 0 0 1.5 1.5h55.95a1.5 1.5 0 0 0 1.5-1.5v-25.757a1.5 1.5 0 0 0 -1.5-1.5zm-4.2 25.757h-47.552l23.777-19.479zm-8-10.428 4.8-3.933 5.892 4.826v7.867zm10.693-2.985-4.931-4.044a1.5 1.5 0 0 0 -1.9 0l-6.218 5.094-12.468-10.214a1.471 1.471 0 0 0 -.318-.179h25.842zm-27.1-9.344a1.471 1.471 0 0 0 -.318.179l-25.524 20.91v-21.089z"/><path d="m104.127 57.523h-55.95a1.5 1.5 0 0 0 -1.5 1.5v25.757a1.5 1.5 0 0 0 1.5 1.5h55.95a1.5 1.5 0 0 0 1.5-1.5v-25.757a1.5 1.5 0 0 0 -1.5-1.5zm-1.5 24.09-25.527-20.913a1.467 1.467 0 0 0 -.319-.18h25.843zm-2.7 1.667h-47.552l23.777-19.48zm-24.406-22.757a1.467 1.467 0 0 0 -.319.18l-25.525 20.909v-21.089z"/><path d="m100.715 95.035h-49.126a4.917 4.917 0 0 0 -4.912 4.912v2.729a4.917 4.917 0 0 0 4.912 4.912h49.126a4.917 4.917 0 0 0 4.912-4.912v-2.73a4.917 4.917 0 0 0 -4.912-4.911zm1.912 7.641a1.914 1.914 0 0 1 -1.912 1.912h-49.126a1.914 1.914 0 0 1 -1.912-1.912v-2.73a1.914 1.914 0 0 1 1.912-1.912h49.126a1.914 1.914 0 0 1 1.912 1.912z"/><path d="m100.715 113.537h-49.126a4.917 4.917 0 0 0 -4.912 4.912v2.729a4.917 4.917 0 0 0 4.912 4.912h49.126a4.917 4.917 0 0 0 4.912-4.912v-2.729a4.917 4.917 0 0 0 -4.912-4.912zm1.912 7.641a1.914 1.914 0 0 1 -1.912 1.912h-49.126a1.914 1.914 0 0 1 -1.912-1.912v-2.729a1.914 1.914 0 0 1 1.912-1.912h49.126a1.914 1.914 0 0 1 1.912 1.912z"/><path d="m100.715 132.04h-49.126a4.917 4.917 0 0 0 -4.912 4.912v2.729a4.917 4.917 0 0 0 4.912 4.912h49.126a4.917 4.917 0 0 0 4.912-4.912v-2.729a4.917 4.917 0 0 0 -4.912-4.912zm1.912 7.641a1.914 1.914 0 0 1 -1.912 1.912h-49.126a1.914 1.914 0 0 1 -1.912-1.912v-2.729a1.914 1.914 0 0 1 1.912-1.912h49.126a1.914 1.914 0 0 1 1.912 1.912z"/></g></svg>