<?xml version="1.0" encoding="UTF-8"?> <svg xmlns="http://www.w3.org/2000/svg" xmlns:xlink="http://www.w3.org/1999/xlink" width="1104px" height="281px" viewBox="0 0 1104 281"><!-- Generator: Sketch 57.1 (83088) - https://sketch.com --><title>Process_web</title><desc>Created with Sketch.</desc><g id="Process_web" stroke="none" stroke-width="1" fill="none" fill-rule="evenodd"><path d="M562,11 L1037,11 L1037,270 L562,270 L562,11 Z" id="path-1" stroke="#4A4A4A" stroke-width="2" stroke-dasharray="5"></path><g id="Rectangle-4" transform="translate(324.000000, 122.000000) rotate(45.000000) translate(-324.000000, -122.000000) translate(278.000000, 76.000000)"><g id="path-3-link" fill="#FFFFFF"><rect id="path-3" x="0" y="0" width="92" height="92" rx="7"></rect></g><rect id="Rectangle" stroke="#4A4A4A" stroke-width="2" x="1" y="1" width="90" height="90" rx="7"></rect></g><g id="visual" transform="translate(307.000000, 101.000000)" fill="#4A4A4A" fill-rule="nonzero"><path d="M22.224,19.416 C23.4992838,18.0907844 24.2117773,16.3231697 24.212,14.484 C24.1969595,10.926325 21.5822971,7.91457392 18.062,7.4 L18.862,6.513 L18.862,2.073 L17,0 L15.143,2.073 L15.143,6.51 L15.938,7.4 C12.4169556,7.91468729 9.80205322,10.9275651 9.788,14.486 C9.78843094,16.3251293 10.5008943,18.0926691 11.776,19.418 L4.327,34.334 C2.47488605,34.5364218 1.06979088,36.0968736 1.062,37.96 C1.06126817,38.6191298 1.24110945,39.2658668 1.582,39.83 L0,43 L4.359,41.59 C4.48426929,41.6026414 4.61009448,41.6089827 4.736,41.609 C6.7566223,41.6128786 8.39918244,39.9806068 8.408,37.96 C8.40861681,37.1685479 8.14933671,36.3987882 7.67,35.769 L14.88,21.331 C16.2615457,21.752639 17.7374543,21.752639 19.119,21.331 L29.157,41.431 L34,43 L22.224,19.416 Z M4.736,39.9000024 C3.66628916,39.8928317 2.8042484,39.0211156 2.80899958,37.9513914 C2.81379019,36.8816672 3.6835721,36.0176749 4.75330432,36.0200434 C5.82303655,36.0224218 6.689,36.8902651 6.689,37.96 C6.6834924,39.0342194 5.81023221,39.9016668 4.736,39.9000024 Z M17,18.2930109 C14.8992393,18.2786638 13.2064981,16.5665728 13.2159992,14.4657849 C13.2255805,12.364997 14.9338034,10.6683523 17.0346076,10.6730885 C19.1354118,10.6778446 20.836,12.3821904 20.836,14.483 C20.8266308,16.5934683 19.1104832,18.2979841 17,18.2930109 Z" id="Visual_TechnicalDesign_Icon"></path></g><g id="Rectangle-4" transform="translate(86.000000, 122.000000) rotate(45.000000) translate(-86.000000, -122.000000) translate(40.000000, 76.000000)"><g id="path-4-link" fill="#FFFFFF"><rect id="path-4" x="0" y="0" width="92" height="92" rx="7"></rect></g><rect id="Rectangle" stroke="#4A4A4A" stroke-width="2" x="1" y="1" width="90" height="90" rx="7"></rect></g><path d="M153.946176,122 L255.946176,122" id="Line" stroke="#4A4A4A" stroke-width="2" stroke-linecap="square"></path><g id="Rectangle-4" transform="translate(562.000000, 122.000000) rotate(45.000000) translate(-562.000000, -122.000000) translate(516.000000, 76.000000)"><g id="path-5-link" fill="#FFFFFF"><rect id="path-5" x="0" y="0" width="92" height="92" rx="7"></rect></g><rect id="Rectangle" stroke="#4A4A4A" stroke-width="2" x="1" y="1" width="90" height="90" rx="7"></rect></g><g id="dev" transform="translate(540.000000, 106.000000)" fill="#4A4A4A" fill-rule="nonzero"><path d="M13.44,26.232 L12.266,27.4 C12.1256216,27.5488283 11.9300873,27.6331875 11.7255,27.6331875 C11.5209127,27.6331875 11.3253784,27.5488283 11.185,27.4 L0.235,16.536 C0.0852795796,16.3979806 0.00011031157,16.2036309 0.00011031157,16 C0.00011031157,15.7963691 0.0852795796,15.6020194 0.235,15.464 L11.185,4.6 C11.3253784,4.45117169 11.5209127,4.36681247 11.7255,4.36681247 C11.9300873,4.36681247 12.1256216,4.45117169 12.266,4.6 L13.44,5.769 C13.5897204,5.90701941 13.6748897,6.10136906 13.6748897,6.305 C13.6748897,6.50863094 13.5897204,6.70298059 13.44,6.841 L4.206,16 L13.44,25.159 C13.5900491,25.2970416 13.6754326,25.4916122 13.6754326,25.6955 C13.6754326,25.8993878 13.5900491,26.0939584 13.44,26.232 Z M27.327,1.364 L18.563,31.452 C18.5068004,31.645682 18.3758302,31.809035 18.199,31.906 C18.0324234,32.0053909 17.8305971,32.0265973 17.647,31.964 L16.19,31.564 C15.9956064,31.508958 15.830929,31.3791578 15.732,31.203 C15.6307216,31.0301427 15.6092058,30.8219138 15.673,30.632 L24.437,0.548 C24.4927263,0.354120206 24.6233423,0.190400461 24.8,0.093 C24.9665766,-0.00639094841 25.1684029,-0.027597327 25.352,0.035 L26.809,0.435 C27.0034443,0.489942672 27.1681557,0.619769799 27.267,0.796 C27.3677206,0.967905282 27.3895804,1.17484461 27.327,1.364 Z M42.765,16.536 L31.815,27.4 C31.6746216,27.5488283 31.4790873,27.6331875 31.2745,27.6331875 C31.0699127,27.6331875 30.8743784,27.5488283 30.734,27.4 L29.56,26.232 C29.4102796,26.0939806 29.3251103,25.8996309 29.3251103,25.696 C29.3251103,25.4923691 29.4102796,25.2980194 29.56,25.16 L38.794,16 L29.56,6.841 C29.4102796,6.70298059 29.3251103,6.50863094 29.3251103,6.305 C29.3251103,6.10136906 29.4102796,5.90701941 29.56,5.769 L30.734,4.6 C30.8743784,4.45117169 31.0699127,4.36681247 31.2745,4.36681247 C31.4790873,4.36681247 31.6746216,4.45117169 31.815,4.6 L42.765,15.461 C42.9157082,15.5990847 43.0015218,15.7940976 43.0015218,15.9985 C43.0015218,16.2029024 42.9157082,16.3979153 42.765,16.536 Z" id="Shape"></path></g><path d="M391.946176,122 L493.946176,122" id="Line" stroke="#4A4A4A" stroke-width="2" stroke-linecap="square"></path><g id="Rectangle-4" transform="translate(800.000000, 122.000000) rotate(45.000000) translate(-800.000000, -122.000000) translate(754.000000, 76.000000)"><g id="path-6-link" fill="#FFFFFF"><rect id="path-6" x="0" y="0" width="92" height="92" rx="7"></rect></g><rect id="Rectangle" stroke="#4A4A4A" stroke-width="2" x="1" y="1" width="90" height="90" rx="7"></rect></g><path d="M629.946176,122 L731.946176,122" id="Line" stroke="#4A4A4A" stroke-width="2" stroke-linecap="square"></path><g id="Rectangle-4" transform="translate(1038.000000, 122.000000) rotate(45.000000) translate(-1038.000000, -122.000000) translate(992.000000, 76.000000)"><g id="path-7-link" fill="#FFFFFF"><rect id="path-7" x="0" y="0" width="92" height="92" rx="7"></rect></g><rect id="Rectangle" stroke="#4A4A4A" stroke-width="2" x="1" y="1" width="90" height="90" rx="7"></rect></g><path d="M867.946176,122 L969.946176,122" id="Line" stroke="#4A4A4A" stroke-width="2" stroke-linecap="square"></path><rect id="Rectangle-3" fill="#FFFFFF" fill-rule="nonzero" x="516" y="201" width="84" height="30"></rect><rect id="Rectangle-3" fill="#FFFFFF" fill-rule="nonzero" x="996" y="201" width="84" height="30"></rect><text id="Planning-and-Consult" fill="#4A4A4A" font-family="OpenSans-Semibold, Open Sans" font-size="18" font-weight="500"><tspan x="29.7006836" y="223">Planning and </tspan><tspan x="40.2167969" y="247">Consulting</tspan></text><text id="Visual-and-Technical" fill="#4A4A4A" font-family="OpenSans-Semibold, Open Sans" font-size="18" font-weight="500"><tspan x="223.995117" y="223">Visual and Technical</tspan></text><text id="Design" fill="#4A4A4A" font-family="OpenSans-Semibold, Open Sans" font-size="18" font-weight="500"><tspan x="282.600586" y="247">Design</tspan></text><text id="Development" fill="#4A4A4A" font-family="OpenSans-Semibold, Open Sans" font-size="18" font-weight="500"><tspan x="504.052734" y="223">Development</tspan></text><text id="Deployment" fill="#4A4A4A" font-family="OpenSans-Semibold, Open Sans" font-size="18" font-weight="500"><tspan x="747.229492" y="223">Deployment</tspan></text><text id="Upgrades" fill="#4A4A4A" font-family="OpenSans-Semibold, Open Sans" font-size="18" font-weight="500"><tspan x="997.932129" y="223">Upgrades</tspan></text><g id="Upgrades" transform="translate(1020.000000, 103.000000)" fill="#4A4A4A" fill-rule="nonzero" stroke="#4A4A4A" stroke-width="0.2"><path d="M10.5,10.949 C10.8114982,10.9492371 11.1100949,10.8246117 11.329,10.603 L17,5 L17,25 C16.9674197,25.2739149 17.0622519,25.5476433 17.2573043,25.7426957 C17.4523567,25.9377481 17.7260851,26.0325803 18,26 C18.2739149,26.0325803 18.5476433,25.9377481 18.7426957,25.7426957 C18.9377481,25.5476433 19.0325803,25.2739149 19,25 L19,5 L24.669,10.6 C24.8875465,10.8215727 25.1857813,10.9463085 25.497,10.9463085 C25.8082187,10.9463085 26.1064535,10.8215727 26.325,10.6 C26.7828489,10.1355289 26.7828489,9.3894711 26.325,8.925 L18.825,1.345 C18.6065879,1.12317667 18.3083028,0.998266827 17.997,0.998266827 C17.6856972,0.998266827 17.3874121,1.12317667 17.169,1.345 L9.669,8.925 C9.21103273,9.38981194 9.21103273,10.1361881 9.669,10.601 C9.88793041,10.8240315 10.1874727,10.9494716 10.5,10.949 Z M34,24 L23,24 C22.7260851,23.9674197 22.4523567,24.0622519 22.2573043,24.2573043 C22.0622519,24.4523567 21.9674197,24.7260851 22,25 L22,28 C22,28.5522847 22.4477153,29 23,29 C23.5522847,29 24,28.5522847 24,28 L24,26 L33,26 L33,35 L3,35 L3,26 L12,26 L12,28 C11.9674197,28.2739149 12.0622519,28.5476433 12.2573043,28.7426957 C12.4523567,28.9377481 12.7260851,29.0325803 13,29 C13.2739149,29.0325803 13.5476433,28.9377481 13.7426957,28.7426957 C13.9377481,28.5476433 14.0325803,28.2739149 14,28 L14,25 C14.0325803,24.7260851 13.9377481,24.4523567 13.7426957,24.2573043 C13.5476433,24.0622519 13.2739149,23.9674197 13,24 L2,24 C1.72608506,23.9674197 1.45235669,24.0622519 1.25730429,24.2573043 C1.06225189,24.4523567 0.967419673,24.7260851 1,25 L1,36 C0.967419673,36.2739149 1.06225189,36.5476433 1.25730429,36.7426957 C1.45235669,36.9377481 1.72608506,37.0325803 2,37 L34,37 C34.2739149,37.0325803 34.5476433,36.9377481 34.7426957,36.7426957 C34.9377481,36.5476433 35.0325803,36.2739149 35,36 L35,25 C35.0325803,24.7260851 34.9377481,24.4523567 34.7426957,24.2573043 C34.5476433,24.0622519 34.2739149,23.9674197 34,24 Z" id="Forma_1"></path></g><g id="circular-light-bulb" transform="translate(69.000000, 100.000000)" fill="#4A4A4A" fill-rule="nonzero"><path d="M16.9690656,0 C7.62733333,0 0.0250819672,7.54626025 0.0250819672,16.8193955 C0.0250819672,22.2408811 2.67968306,27.3595389 7.1302459,30.5131352 L7.3392623,30.6505328 C8.37282514,31.2532377 8.47454645,33.1930328 8.45187978,33.5490676 L8.44621311,33.7256557 L8.44621311,39.2452561 C8.44621311,40.299252 9.0392623,41.2607582 9.98531694,41.7429406 L15.6841257,44.6302254 C16.0879454,44.8348463 16.528459,44.9385861 16.9690656,44.9385861 C17.4040055,44.9385861 17.8416393,44.8377049 18.2426721,44.6386168 L24.0092951,41.7484734 C24.9610164,41.271916 25.5596393,40.3047848 25.5596393,39.2451639 L25.5596393,33.7564549 C25.5596393,30.9896926 27.2625191,30.0757684 27.2766393,30.0702357 L27.9035956,29.6693852 C31.7244153,26.4597234 33.9130492,21.7811066 33.9130492,16.8193955 C33.9130492,7.54626025 26.3136776,0 16.9690656,0 Z M16.9690656,42.1353074 L11.2730437,39.2451639 L22.7355956,39.2451639 L16.9690656,42.1353074 Z M22.7328087,33.7564549 L22.7328087,36.4419775 L11.2702568,36.4419775 L11.2702568,33.7256557 L11.2730437,33.638791 L22.7441421,33.638791 L22.7328087,33.7564549 Z M26.0820874,27.5277357 C26.0820874,27.5277357 24.1899781,28.4051434 23.2524699,30.8355123 L10.8184098,30.8355123 C10.4681913,29.8656148 9.86111475,28.8676844 8.77097814,28.2284631 C5.1873224,25.6915881 2.84912568,21.5260451 2.84912568,16.8193955 C2.84912568,9.07967213 9.17201093,2.80327869 16.9690656,2.80327869 C24.7689071,2.80327869 31.0890055,9.07967213 31.0890055,16.8193955 C31.0890055,21.1139447 29.1432951,24.9543443 26.0820874,27.5277357 Z" id="Shape"></path><path d="M18.3810874,5.60646516 C17.6044754,5.60646516 16.9690656,6.23434426 16.9690656,7.00810451 C16.9690656,7.78186475 17.6044754,8.40974385 18.3810874,8.40974385 C21.5580437,8.40974385 25.4411038,11.2774795 25.4411038,15.5495287 C25.4411038,16.3231967 26.0765137,16.951168 26.8531257,16.951168 C27.6297377,16.951168 28.2651475,16.3232889 28.2651475,15.5495287 C28.2651475,9.1553791 23.2354699,5.60646516 18.3810874,5.60646516 Z" id="Shape"></path></g><rect id="Rectangle" fill="#FFFFFF" x="778" y="0" width="44" height="23"></rect><rect id="Rectangle" fill="#FFFFFF" x="782" y="258" width="44" height="23"></rect><path d="M793.77975,1.009 C794.22375,0.565 794.92275,0.565 795.36675,1.009 C795.79575,1.438 795.79575,2.152 795.36675,2.58 L787.31975,10.627 L813.87375,10.627 C814.49275,10.627 815.00075,11.119 815.00075,11.738 C815.00075,12.357 814.49275,12.865 813.87375,12.865 L787.31975,12.865 L795.36675,20.897 C795.79575,21.341 795.79575,22.056 795.36675,22.484 C794.92275,22.928 794.22375,22.928 793.77975,22.484 L783.82775,12.532 C783.39875,12.103 783.39875,11.389 783.82775,10.961 L793.77975,1.009 Z" id="Shape" fill="#4A4A4A" fill-rule="nonzero" transform="translate(799.253375, 11.746500) scale(-1, 1) translate(-799.253375, -11.746500) "></path><path d="M797.779,258.333 C798.223,257.889 798.922,257.889 799.366,258.333 C799.795,258.762 799.795,259.476 799.366,259.904 L791.319,267.951 L817.873,267.951 C818.492,267.951 819,268.443 819,269.062 C819,269.681 818.492,270.189 817.873,270.189 L791.319,270.189 L799.366,278.221 C799.795,278.665 799.795,279.38 799.366,279.808 C798.922,280.252 798.223,280.252 797.779,279.808 L787.827,269.856 C787.398,269.427 787.398,268.713 787.827,268.285 L797.779,258.333 Z" id="Shape" fill="#4A4A4A" fill-rule="nonzero"></path><g id="rocket" transform="translate(782.000000, 103.000000)" fill="#4A4A4A" fill-opacity="0" fill-rule="nonzero" stroke="#4A4A4A" stroke-width="2.2"><path d="M4.50453989,21.3259498 C4.41202984,21.4603933 4.33545914,21.6051362 4.27637064,21.757265 L3.6656363,23.3296578 L-1.2951476,18.3672658 L-0.705423953,17.6017174 C-0.538658587,17.3852313 -0.238676198,17.0219614 0.176764242,16.5602195 C0.865197344,15.7950594 1.63250143,15.0302341 2.4625442,14.3137634 C4.69432536,12.3873498 6.96713334,11.1467045 9.22417997,10.9472692 L11.4306439,10.7523036 L10.2525037,12.6280648 C8.34290628,15.6684067 6.86123689,17.932962 4.50453923,21.3259492 Z M18.6355411,38.3003977 L13.6912081,33.354461 L15.2374005,32.7341042 C15.3888087,32.6733568 15.5326222,32.5951734 15.67334,32.4959551 C19.1019181,30.1193557 21.4792491,28.5647202 24.3764405,26.7515525 L26.2508006,25.5785099 L26.0557102,27.7810526 C25.8558204,30.0377794 24.6152988,32.3103186 22.689346,34.5418792 C21.9728674,35.3720477 21.2080329,36.1394762 20.4428635,36.8280267 C19.9811161,37.2435379 19.6178423,37.5435732 19.401355,37.7103682 L18.6355411,38.3003977 Z M10.532991,31.1453352 C10.6018425,31.1154087 10.6678307,31.0848942 10.7288237,31.0547651 L11.4360482,30.7054133 L12.997515,32.26688 L12.4268714,33.0298365 C10.793088,35.2142222 8.4613654,36.7741447 5.86562034,37.4375411 C4.49674874,37.8532201 3.07663282,38.0761326 1.69802025,38.0977692 C1.36486876,38.119019 1.03047965,38.0858955 0.653530704,37.983632 C-0.253682374,37.6902492 -0.918779729,36.9115653 -1.07337681,35.9195287 C-1.10328027,35.6482591 -1.10817116,35.3748141 -1.0903693,35.1467557 C-1.03728952,33.5799561 -0.753552662,32.0295369 -0.251831948,30.5560142 C0.209529061,29.1546634 0.899448833,27.8392507 1.79003604,26.6629712 C2.41193242,25.8416503 3.16308447,25.1267766 4.01416018,24.5462654 L4.76723479,24.0325999 L6.29554609,25.5609112 L5.96986237,26.2590435 C5.69550043,26.8471629 5.57865852,27.1144782 5.46458067,27.4361039 C5.18243098,28.2306375 4.98418872,28.8574101 4.83095578,29.4635725 C4.56143862,30.5556152 4.3589541,31.6627693 4.22419116,32.7826097 C4.40115934,32.7602915 4.58233655,32.7359458 4.76846401,32.7095371 C6.21358697,32.5179925 7.63781047,32.1927207 9.01642125,31.740026 C9.31683592,31.6393346 9.58765792,31.5337556 10.0943489,31.3251727 C10.1392019,31.3067033 10.1392019,31.3067033 10.1843165,31.2881177 C10.3553742,31.2176697 10.4360046,31.1846043 10.532991,31.1453352 Z M11.4342258,32.4827742 L11.2811655,32.1729204 L11.1684121,32.0885879 L10.4381825,32.8188175 L10.7681825,33.1488175 L11.4342258,32.4827742 Z M4.90893028,25.8580697 L4.8149314,25.7202599 L4.510677,25.578323 L3.85618254,26.2328175 L4.19518254,26.5718175 L4.90893028,25.8580697 Z M37.4051523,-0.402482471 L37.4060392,-0.401593794 C37.8604555,0.0542534222 38.110772,0.674779119 38.099997,1.32061038 C37.9475222,9.45693701 36.1386198,17.1497204 31.5332689,21.753312 C29.5322321,23.7879633 27.2552204,25.5313441 24.8117069,26.9069805 C21.4243149,29.0226267 19.2424553,30.4426734 15.5630529,32.9990778 C14.6172844,33.6568203 13.3361421,33.5424186 12.5220411,32.727676 L4.27205563,24.4746779 C3.46397366,23.6600593 3.35216768,22.3848456 4.00635031,21.4417702 C6.55852505,17.7648533 7.95978872,15.6104238 10.0736124,12.229099 C11.4742036,9.74288527 13.2172559,7.46584645 15.2451105,5.4712546 C19.8467328,0.868779654 27.5343661,-0.939635729 35.7,-1.10000002 L35.722,-1.10000002 C36.3533835,-1.10000002 36.9588915,-0.849127705 37.4051523,-0.402482471 Z M26.2952278,15.1651373 C26.8866093,14.5738246 27.2188497,13.7717911 27.2188497,12.9355 C27.2188497,12.0992089 26.8866093,11.2971754 26.2952278,10.7058627 C25.0638668,9.47464494 23.0675643,9.47472232 21.8362988,10.7060355 C20.6050334,11.9373487 20.6050334,13.9336513 21.8362988,15.1649645 C23.0675643,16.3962777 25.0638668,16.396355 26.2952278,15.1651373 Z" id="Shape"></path></g></g></svg> 