<svg xmlns="http://www.w3.org/2000/svg" viewBox="0 0 127.68 135.15">
  <defs>
    <style>
      .cls-1, .cls-2 {
        fill: none;
        stroke-linecap: round;
        stroke-width: 5px;
      }

      .cls-1 {
        stroke: #666;
        stroke-linejoin: round;
      }

      .cls-2 {
        stroke: #ff9828;
        stroke-miterlimit: 10;
      }
    </style>
  </defs>
  <title>future</title>
  <g id="Layer_2" data-name="Layer 2">
    <g id="Layer_1-2" data-name="Layer 1">
      <g>
        <circle class="cls-1" cx="60.7" cy="76.49" r="40"/>
        <path class="cls-1" d="M28,76.49A32.66,32.66,0,0,1,60.7,43.83"/>
        <polyline class="cls-1" points="36.73 108.51 32.49 124.54 88.91 124.54 84.67 108.51"/>
        <rect class="cls-1" x="28.02" y="124.54" width="65.36" height="8.11" rx="4.05" ry="4.05"/>
        <path class="cls-2" d="M14.62,55.08a19,19,0,0,0-8.93-8.93,19,19,0,0,0,8.93-8.93,19,19,0,0,0,8.93,8.93A19,19,0,0,0,14.62,55.08Z"/>
        <path class="cls-2" d="M65.82,19.93a15.12,15.12,0,0,0-7.12-7.12,15.12,15.12,0,0,0,7.12-7.12,15.12,15.12,0,0,0,7.12,7.12A15.12,15.12,0,0,0,65.82,19.93Z"/>
        <path class="cls-2" d="M83.5,32.15A15.12,15.12,0,0,0,76.38,25a15.12,15.12,0,0,0,7.12-7.12A15.12,15.12,0,0,0,90.62,25,15.12,15.12,0,0,0,83.5,32.15Z"/>
        <path class="cls-2" d="M114.88,66.27a15.12,15.12,0,0,0-7.12-7.12A15.12,15.12,0,0,0,114.88,52,15.12,15.12,0,0,0,122,59.16,15.12,15.12,0,0,0,114.88,66.27Z"/>
      </g>
    </g>
  </g>
</svg>
