<svg xmlns="http://www.w3.org/2000/svg" viewBox="0 0 155.49 185.32">
  <defs>
    <style>
      .cls-1, .cls-2 {
        fill: none;
        stroke-miterlimit: 10;
        stroke-width: 5px;
      }

      .cls-1 {
        stroke: #666;
      }

      .cls-2 {
        stroke: #ff9828;
      }
    </style>
  </defs>
  <title>philosophy</title>
  <g id="Layer_2" data-name="Layer 2">
    <g id="Layer_1-2" data-name="Layer 1">
      <g>
        <path class="cls-1" d="M54.61,185.26V155.35H23.38V120.17L3.65,112.61S15.51,92.5,21.42,79.46c-4.49-18.13,8-77,64.74-77,0,0,66.79.65,66.79,70.15,1.25,51.75-32.75,69-32.75,69l-1,43.61"/>
        <rect class="cls-2" x="65.21" y="47.53" width="42.63" height="41.38" rx="8.06" ry="8.06"/>
        <line class="cls-2" x1="74.96" y1="62.28" x2="98.71" y2="62.28"/>
        <line class="cls-2" x1="74.96" y1="75.03" x2="89.83" y2="75.03"/>
        <g>
          <circle class="cls-2" cx="47.71" cy="101.28" r="6.5"/>
          <circle class="cls-2" cx="74.96" cy="110.68" r="6.5"/>
          <circle class="cls-2" cx="98.71" cy="110.68" r="6.5"/>
          <circle class="cls-2" cx="119.6" cy="107.78" r="6.5"/>
          <circle class="cls-2" cx="134.99" cy="79.65" r="6.5"/>
          <polyline class="cls-2" points="65.2 79.65 56.45 79.65 47.7 87.03 47.7 94.78"/>
          <polyline class="cls-2" points="107.83 79.65 119.6 79.65 128.49 79.65"/>
          <line class="cls-2" x1="119.6" y1="101.28" x2="119.6" y2="79.65"/>
          <line class="cls-2" x1="98.71" y1="104.18" x2="98.71" y2="88.9"/>
          <line class="cls-2" x1="74.96" y1="104.18" x2="74.96" y2="88.9"/>
        </g>
        <circle class="cls-2" cx="125.99" cy="38.15" r="6.5"/>
        <circle class="cls-2" cx="98.74" cy="25.75" r="6.5"/>
        <circle class="cls-2" cx="74.99" cy="25.75" r="6.5"/>
        <circle class="cls-2" cx="54.09" cy="37.65" r="6.5"/>
        <circle class="cls-2" cx="38.71" cy="56.78" r="6.5"/>
        <polyline class="cls-2" points="108.49 56.78 117.24 56.78 125.99 49.4 125.99 43.65"/>
        <polyline class="cls-2" points="65.87 56.78 54.09 56.78 45.2 56.78"/>
        <line class="cls-2" x1="54.09" y1="44.15" x2="54.09" y2="56.78"/>
        <line class="cls-2" x1="74.99" y1="32.25" x2="74.99" y2="47.53"/>
        <line class="cls-2" x1="98.74" y1="32.25" x2="98.74" y2="47.53"/>
      </g>
    </g>
  </g>
</svg>
