<?xml version="1.0" encoding="iso-8859-1"?>
<!-- Generator: Adobe Illustrator 19.0.0, SVG Export Plug-In . SVG Version: 6.00 Build 0)  -->
<svg version="1.1" id="Capa_1" xmlns="http://www.w3.org/2000/svg" xmlns:xlink="http://www.w3.org/1999/xlink" x="0px" y="0px"
	 viewBox="0 0 512 512" style="enable-background:new 0 0 512 512;" xml:space="preserve">
<path style="fill:#867E88;" d="M440,265.162v-17.16h-16v17.16c0,7.008,4.234,13.137,10.547,15.25
	c3.258,1.094,5.453,4.145,5.453,7.59c0,4.41-3.586,8-8,8c-4.414,0-8-3.59-8-8c0-4.418-3.578-8-8-8c-4.422,0-8,3.582-8,8
	c0,13.234,10.766,24,24,24c13.234,0,24-10.766,24-24C456,277.67,449.421,268.522,440,265.162z"/>
<g>
	<rect x="407.998" y="143.999" style="fill:#9C969E;" width="16" height="87.999"/>
	<rect x="439.998" y="143.999" style="fill:#9C969E;" width="16" height="87.999"/>
</g>
<g>
	<path style="fill:#EBAF50;" d="M158.408,148.803c-2.438,0-4.836-1.105-6.406-3.199l-46.398-60.801
		c-1.82-2.426-2.109-5.668-0.758-8.379c1.359-2.711,4.125-4.422,7.156-4.422h32l-26.383-35.172
		c-2.656-3.535-1.938-8.551,1.602-11.199c3.523-2.664,8.547-1.938,11.195,1.598L166.4,75.202c1.82,2.426,2.109,5.668,0.758,8.379
		c-1.359,2.711-4.125,4.422-7.156,4.422h-32l36.797,48c2.656,3.535,1.938,8.551-1.602,11.199
		C161.759,148.283,160.08,148.803,158.408,148.803z"/>
	<path style="fill:#EBAF50;" d="M160.009,480c-2.438,0-4.836-1.105-6.406-3.199l-48-64c-1.82-2.426-2.109-5.668-0.758-8.379
		c1.359-2.711,4.125-4.422,7.156-4.422h32l-38.398-51.199c-1.82-2.426-2.109-5.668-0.758-8.379c1.359-2.711,4.125-4.422,7.156-4.422
		h32l-38.398-51.199c-1.82-2.426-2.109-5.668-0.758-8.379c1.359-2.711,4.125-4.422,7.156-4.422h32l-38.398-51.199
		c-2.656-3.535-1.938-8.551,1.602-11.199c3.531-2.664,8.547-1.938,11.195,1.598l48,64c1.82,2.426,2.109,5.668,0.758,8.379
		c-1.359,2.711-4.125,4.422-7.156,4.422h-32l38.398,51.199c1.82,2.426,2.109,5.668,0.758,8.379
		c-1.359,2.711-4.125,4.422-7.156,4.422h-32l38.398,51.199c1.82,2.426,2.109,5.668,0.758,8.379
		c-1.359,2.711-4.125,4.422-7.156,4.422h-32l38.398,51.199c2.656,3.535,1.938,8.551-1.602,11.199
		C163.361,479.482,161.681,480,160.009,480z"/>
</g>
<g>
	<rect x="104" y="40" style="fill:#FFC350;" width="16" height="439.997"/>
	<rect x="152" y="16" style="fill:#FFC350;" width="16" height="463.997"/>
</g>
<path style="fill:#C9C6CA;" d="M96.002,480v24h80v-24c0-4.418-3.582-8-8-8h-64C99.583,472.001,96.002,475.583,96.002,480z"/>
<g>
	<path style="fill:#FFD164;" d="M448,128.007c-0.969,0-1.945-0.176-2.898-0.547L160.916,16.941L28.346,102.718
		c-3.703,2.398-8.656,1.336-11.063-2.367c-2.398-3.711-1.336-8.664,2.375-11.063L155.658,1.288c2.148-1.402,4.844-1.676,7.242-0.742
		l287.998,111.999c4.117,1.602,6.156,6.238,4.555,10.355C454.226,126.066,451.203,128.003,448,128.007z"/>
	<path style="fill:#FFD164;" d="M104.002,144.002v64c0,4.418,3.582,8,8,8h49.583c3.75,0,6.996-2.604,7.81-6.265l14.608-65.735
		H104.002z"/>
</g>
<path style="fill:#5D5360;" d="M182.224,152.002h-46.222v24c0,4.418,3.582,8,8,8h31.111L182.224,152.002z"/>
<circle style="fill:#FFD164;" cx="431.998" cy="231.999" r="24"/>
<path style="fill:#9C969E;" d="M192.002,512H80.002c-4.422,0-8-3.582-8-8s3.578-8,8-8h111.999c4.422,0,8,3.582,8,8
	S196.423,512,192.002,512z"/>
<path style="fill:#FFD164;" d="M468.686,112.003H171.315c-2.122,0-4.157,0.843-5.657,2.343l-29.657,29.657h367.998l-29.657-29.657
	C472.842,112.846,470.808,112.003,468.686,112.003z"/>
<path style="fill:#FFC350;" d="M64.002,152.002H496c4.418,0,8-3.582,8-8l0,0c0-4.418-3.582-8-8-8H64.002L64.002,152.002
	L64.002,152.002z"/>
<path style="fill:#C9C6CA;" d="M72.002,152.002h-56c-4.418,0-8-3.582-8-8v-48c0-4.418,3.582-8,8-8h56c4.418,0,8,3.582,8,8v48
	C80.002,148.42,76.42,152.002,72.002,152.002z"/>
<rect x="8.001" y="112" style="fill:#B7B2B8;" width="72" height="16"/>
<polygon style="fill:#4B3F4E;" points="182.224,152.002 136.002,152.002 136.002,168.002 178.668,168.002 "/>
<g>
</g>
<g>
</g>
<g>
</g>
<g>
</g>
<g>
</g>
<g>
</g>
<g>
</g>
<g>
</g>
<g>
</g>
<g>
</g>
<g>
</g>
<g>
</g>
<g>
</g>
<g>
</g>
<g>
</g>
</svg>
