<svg id="Layer_1" enable-background="new 0 0 256 256" height="512" viewBox="0 0 256 256" width="512" xmlns="http://www.w3.org/2000/svg"><g><path d="m73.3 26.851s3.408 12.659 13.222 13.246c0 0-13.1 4.525-13.321 14.202 0 0-2.578-13.572-12.925-14.059-.001.001 12.05-1.825 13.024-13.389z" fill="#d5de58"/><path d="m73.199 55.799c-.713 0-1.335-.506-1.473-1.217-.023-.124-2.494-12.418-11.521-12.843-.771-.037-1.388-.651-1.428-1.421-.04-.771.511-1.445 1.273-1.561.441-.069 10.894-1.817 11.754-12.032.062-.725.635-1.301 1.359-1.367.736-.062 1.394.4 1.584 1.102.031.116 3.259 11.626 11.863 12.14.714.043 1.297.584 1.396 1.292.098.708-.318 1.388-.994 1.622-.121.042-12.118 4.311-12.312 12.819-.018.767-.611 1.396-1.375 1.459-.042.006-.084.007-.126.007zm-7.741-15.729c3.878 1.969 6.23 5.746 7.587 8.876 2.026-4.021 5.942-6.787 8.949-8.427-4.134-1.842-6.783-5.651-8.334-8.722-1.793 4.36-5.271 6.868-8.202 8.273z" fill="#3a312a"/><path d="m51.601 43.832s2.411 8.954 9.352 9.369c0 0-9.266 3.201-9.422 10.045 0 0-1.824-9.6-9.142-9.944 0 .001 8.523-1.291 9.212-9.47z" fill="#d5de58"/><path d="m51.53 64.747c-.714 0-1.337-.507-1.473-1.22-.016-.082-1.704-8.442-7.739-8.726-.771-.037-1.388-.651-1.428-1.421-.04-.771.511-1.445 1.274-1.561.296-.047 7.363-1.243 7.942-8.114.062-.726.636-1.303 1.361-1.368.725-.064 1.392.399 1.582 1.102.021.079 2.227 7.919 7.993 8.264.714.043 1.299.584 1.396 1.293s-.32 1.388-.996 1.622c-.081.028-8.282 2.953-8.412 8.662-.018.767-.611 1.397-1.376 1.461-.041.004-.083.006-.124.006zm-4.519-11.528c2.107 1.333 3.523 3.394 4.447 5.28 1.376-2.232 3.515-3.872 5.365-4.973-2.287-1.269-3.885-3.35-4.941-5.224-1.174 2.287-3.016 3.876-4.871 4.917z" fill="#3a312a"/><path d="m51.601 17.174s2.411 8.954 9.352 9.369c0 0-9.266 3.201-9.422 10.045 0 0-1.824-9.6-9.142-9.944 0 .001 8.523-1.29 9.212-9.47z" fill="#d5de58"/><path d="m51.53 38.089c-.714 0-1.337-.507-1.473-1.22-.016-.081-1.704-8.442-7.739-8.725-.771-.037-1.388-.651-1.428-1.421-.04-.771.511-1.445 1.274-1.561.296-.047 7.363-1.243 7.942-8.114.062-.726.636-1.303 1.361-1.368.725-.062 1.392.399 1.582 1.102.021.079 2.227 7.92 7.993 8.265.714.043 1.299.584 1.396 1.293s-.32 1.388-.996 1.622c-.081.028-8.282 2.952-8.412 8.662-.018.767-.611 1.397-1.376 1.461-.041.003-.083.004-.124.004zm-4.519-11.527c2.107 1.332 3.523 3.395 4.447 5.28 1.376-2.232 3.516-3.872 5.365-4.972-2.287-1.27-3.885-3.35-4.941-5.224-1.174 2.286-3.016 3.875-4.871 4.916z" fill="#3a312a"/><path d="m143.26 39.228-124.398 124.398c-3.593 3.593-3.593 9.41 0 13.003l21.438 21.438c.049-.063.113-.127.169-.183 4.871-4.871 12.777-4.871 17.647 0 4.871 4.871 4.871 12.777 0 17.647-.056.057-.12.12-.184.17l21.438 21.438c3.593 3.593 9.41 3.593 13.003 0l144.765-144.765c3.593-3.593 3.593-9.41 0-13.003l-21.431-21.431-.056.057c-4.878 4.878-12.777 4.871-17.647 0-4.871-4.871-4.878-12.77 0-17.647l.057-.056-21.431-21.431c-3.593-3.593-9.41-3.593-13.003 0l-11.275 11.275z" fill="#87796f"/><path d="m85.872 241.333c-2.855 0-5.541-1.113-7.562-3.134l-21.438-21.438c-.305-.304-.464-.725-.437-1.154s.237-.827.577-1.091c2.115-2.118 3.257-4.875 3.257-7.809s-1.142-5.691-3.214-7.763-4.829-3.213-7.763-3.213-5.69 1.141-7.763 3.213c-.265.338-.687.57-1.115.596-.419.031-.872-.108-1.176-.412l-21.437-21.438c-4.17-4.17-4.17-10.954 0-15.124l124.398-124.398c.586-.586 1.535-.586 2.121 0 .586.585.586 1.536 0 2.121l-124.398 124.398c-3 3-3 7.881 0 10.881l20.41 20.409c2.508-2.103 5.646-3.247 8.961-3.247 3.735 0 7.245 1.453 9.884 4.092 2.64 2.639 4.093 6.149 4.093 9.884 0 3.315-1.145 6.453-3.247 8.962l20.409 20.409c1.454 1.455 3.387 2.255 5.44 2.255 2.054 0 3.986-.801 5.441-2.255l144.765-144.764c3-3 3-7.881 0-10.881l-20.425-20.424c-2.518 2.05-5.587 3.145-8.825 3.145-.001 0-.003 0-.004 0-3.732-.001-7.241-1.456-9.881-4.095-2.64-2.64-4.095-6.149-4.096-9.881-.001-3.256 1.105-6.344 3.141-8.833l-20.42-20.421c-3-3-7.881-3-10.881 0l-11.276 11.275c-.586.586-1.535.586-2.121 0s-.586-1.536 0-2.121l11.276-11.275c4.168-4.169 10.953-4.17 15.123 0l21.431 21.431c.584.584.586 1.53.005 2.117-2.136 2.136-3.277 4.894-3.277 7.826.001 2.931 1.143 5.688 3.217 7.761 2.073 2.073 4.829 3.215 7.761 3.216h.003c2.932 0 5.688-1.142 7.762-3.216.562-.562 1.615-.619 2.178-.057l21.432 21.431c4.17 4.169 4.17 10.954 0 15.124l-144.766 144.764c-2.022 2.021-4.707 3.134-7.563 3.134z" fill="#3a312a"/><path d="m202.024 128.571c-.384 0-.768-.147-1.061-.44l-5.486-5.487c-.586-.586-.586-1.536 0-2.121.586-.586 1.535-.586 2.121 0l5.486 5.487c.586.586.586 1.536 0 2.121-.292.293-.676.44-1.06.44z" fill="#3a312a"/><path d="m190.881 117.427c-.384 0-.768-.146-1.061-.439l-5.657-5.657c-.586-.586-.586-1.535 0-2.121s1.535-.586 2.121 0l5.657 5.657c.586.585.586 1.535 0 2.121-.293.293-.676.439-1.06.439z" fill="#3a312a"/><path d="m179.567 106.114c-.384 0-.768-.146-1.061-.439l-5.657-5.657c-.586-.586-.586-1.535 0-2.121s1.535-.586 2.121 0l5.657 5.657c.586.586.586 1.535 0 2.121-.292.292-.676.439-1.06.439z" fill="#3a312a"/><path d="m168.253 94.8c-.384 0-.768-.146-1.061-.439l-5.656-5.657c-.586-.586-.586-1.536 0-2.121.586-.586 1.535-.586 2.121 0l5.656 5.657c.586.586.586 1.536 0 2.121-.293.292-.676.439-1.06.439z" fill="#3a312a"/><path d="m156.939 83.486c-.384 0-.768-.146-1.061-.439l-5.656-5.657c-.586-.586-.586-1.536 0-2.121.586-.586 1.535-.586 2.121 0l5.657 5.657c.586.586.586 1.536 0 2.121-.293.293-.677.439-1.061.439z" fill="#3a312a"/><path d="m145.626 72.173c-.384 0-.768-.146-1.061-.439l-5.657-5.657c-.586-.586-.586-1.536 0-2.121.586-.586 1.535-.586 2.121 0l5.657 5.657c.586.586.586 1.536 0 2.121-.292.292-.676.439-1.06.439z" fill="#3a312a"/><path d="m134.312 60.859c-.384 0-.768-.146-1.061-.439l-5.657-5.657c-.586-.585-.586-1.535 0-2.121s1.535-.586 2.121 0l5.657 5.657c.586.585.586 1.535 0 2.121-.292.292-.676.439-1.06.439z" fill="#3a312a"/><path d="m45.447 75.93h-19.988c-5.09 0-9.21 4.12-9.21 9.21v85.72c0 5.09 4.12 9.21 9.21 9.21h205.08c5.09 0 9.21-4.12 9.21-9.21v-85.72c0-5.09-4.12-9.21-9.21-9.21h-172.655z" fill="#eb6e7a"/><path d="m230.539 181.57h-205.08c-5.905 0-10.71-4.805-10.71-10.71v-85.72c0-5.906 4.805-10.71 10.71-10.71h205.08c5.905 0 10.71 4.805 10.71 10.71v85.72c0 5.906-4.805 10.71-10.71 10.71zm-205.08-104.14c-4.251 0-7.71 3.459-7.71 7.71v85.72c0 4.251 3.459 7.71 7.71 7.71h205.08c4.251 0 7.71-3.459 7.71-7.71v-85.72c0-4.251-3.459-7.71-7.71-7.71z" fill="#3a312a"/><path d="m94.012 96h145.737v-10.86c0-5.09-4.12-9.21-9.21-9.21h-205.08c-5.09 0-9.21 4.12-9.21 9.21v10.86h63.736z" fill="#89c4db"/><g fill="#3a312a"><path d="m239.749 97.501h-145.737c-.828 0-1.5-.671-1.5-1.5s.672-1.5 1.5-1.5h144.237v-9.36c0-4.251-3.459-7.71-7.71-7.71h-205.08c-4.251 0-7.71 3.459-7.71 7.71v9.36h62.235c.828 0 1.5.671 1.5 1.5s-.672 1.5-1.5 1.5h-63.735c-.828 0-1.5-.671-1.5-1.5v-10.86c0-5.906 4.805-10.71 10.71-10.71h205.08c5.905 0 10.71 4.805 10.71 10.71v10.86c0 .828-.672 1.5-1.5 1.5z"/><path d="m180.999 81.428c-.828 0-1.5-.671-1.5-1.5v-4c0-.829.672-1.5 1.5-1.5s1.5.671 1.5 1.5v4c0 .828-.672 1.5-1.5 1.5z"/><path d="m180.999 169.82c-.828 0-1.5-.671-1.5-1.5v-7.366c0-.829.672-1.5 1.5-1.5s1.5.671 1.5 1.5v7.366c0 .829-.672 1.5-1.5 1.5z"/><path d="m180.999 155.088c-.828 0-1.5-.671-1.5-1.5v-7.366c0-.829.672-1.5 1.5-1.5s1.5.671 1.5 1.5v7.366c0 .829-.672 1.5-1.5 1.5z"/><path d="m180.999 140.356c-.828 0-1.5-.671-1.5-1.5v-7.366c0-.829.672-1.5 1.5-1.5s1.5.671 1.5 1.5v7.366c0 .829-.672 1.5-1.5 1.5z"/><path d="m180.999 125.624c-.828 0-1.5-.671-1.5-1.5v-7.366c0-.829.672-1.5 1.5-1.5s1.5.671 1.5 1.5v7.366c0 .828-.672 1.5-1.5 1.5z"/><path d="m180.999 110.892c-.828 0-1.5-.671-1.5-1.5v-7.366c0-.829.672-1.5 1.5-1.5s1.5.671 1.5 1.5v7.366c0 .828-.672 1.5-1.5 1.5z"/><path d="m180.999 96.16c-.828 0-1.5-.671-1.5-1.5v-7.366c0-.829.672-1.5 1.5-1.5s1.5.671 1.5 1.5v7.366c0 .828-.672 1.5-1.5 1.5z"/><path d="m180.999 181.187c-.828 0-1.5-.671-1.5-1.5v-4c0-.829.672-1.5 1.5-1.5s1.5.671 1.5 1.5v4c0 .828-.672 1.5-1.5 1.5z"/></g><path d="m223.249 97.5v73.36c0 4.25-3.46 7.71-7.71 7.71h15c4.25 0 7.71-3.46 7.71-7.71v-73.36z" fill="#d24e5c"/><path d="m238.249 85.14v9.36h-15v-9.36c0-4.25-3.46-7.71-7.71-7.71h15c4.25 0 7.71 3.46 7.71 7.71z" fill="#6da4bd"/><path d="m199.999 169.428c-.828 0-1.5-.671-1.5-1.5v-46c0-.829.672-1.5 1.5-1.5s1.5.671 1.5 1.5v46c0 .828-.672 1.5-1.5 1.5z" fill="#3a312a"/><path d="m210.332 169.428c-.828 0-1.5-.671-1.5-1.5v-46c0-.829.672-1.5 1.5-1.5s1.5.671 1.5 1.5v46c0 .828-.672 1.5-1.5 1.5z" fill="#3a312a"/><path d="m52.305 122.273 3.576 7.246c.42.85 1.231 1.44 2.169 1.576l7.997 1.162c2.363.343 3.307 3.247 1.597 4.914l-5.787 5.641c-.679.662-.989 1.616-.829 2.55l1.366 7.964c.404 2.354-2.067 4.149-4.181 3.037l-7.153-3.76c-.839-.441-1.842-.441-2.681 0l-7.153 3.76c-2.114 1.111-4.584-.684-4.18-3.037l1.366-7.964c.16-.935-.15-1.888-.829-2.55l-5.787-5.641c-1.71-1.667-.766-4.571 1.597-4.914l7.997-1.162c.938-.136 1.75-.726 2.169-1.576l3.576-7.246c1.059-2.142 4.113-2.142 5.17 0z" fill="#d6df58"/><path d="m59.56 158.2c-.696 0-1.396-.168-2.043-.508l-7.153-3.76c-.402-.212-.883-.212-1.285 0l-7.152 3.76c-1.486.781-3.255.654-4.613-.333-1.359-.987-2.027-2.629-1.744-4.285l1.366-7.965c.077-.448-.071-.906-.397-1.223l-5.786-5.64c-1.203-1.173-1.628-2.894-1.108-4.492.519-1.598 1.874-2.74 3.536-2.982l7.997-1.162c.45-.065.839-.348 1.041-.756l3.576-7.246c.743-1.506 2.248-2.442 3.929-2.442 1.68 0 3.185.936 3.928 2.442l3.576 7.246c.202.408.591.69 1.041.756l7.996 1.162c1.662.241 3.018 1.384 3.536 2.982.52 1.598.095 3.319-1.108 4.492l-5.786 5.64c-.325.317-.475.775-.397 1.223l1.366 7.965c.284 1.655-.384 3.297-1.742 4.285-.772.558-1.67.841-2.574.841zm-9.838-36.033c-.538 0-1.001.288-1.239.77l-3.576 7.247c-.639 1.294-1.872 2.189-3.299 2.396l-7.997 1.162c-.532.077-.949.429-1.115.94s-.035 1.041.35 1.416l5.787 5.64c1.032 1.007 1.503 2.456 1.26 3.878l-1.366 7.965c-.091.53.114 1.035.55 1.351s.98.355 1.454.105l7.152-3.76c1.277-.671 2.803-.67 4.078 0l7.153 3.76c.476.25 1.021.21 1.454-.105.435-.316.64-.821.549-1.351l-1.366-7.965c-.243-1.421.228-2.87 1.26-3.877l5.787-5.641c.385-.375.516-.905.35-1.416s-.583-.863-1.115-.94l-7.996-1.162c-1.427-.207-2.66-1.103-3.299-2.396l-3.576-7.246c-.24-.483-.703-.771-1.24-.771z" fill="#3a312a"/><path d="m101.397 122.273 3.576 7.246c.42.85 1.231 1.44 2.169 1.576l7.997 1.162c2.363.343 3.307 3.247 1.597 4.914l-5.787 5.641c-.679.662-.989 1.616-.829 2.55l1.366 7.964c.404 2.354-2.067 4.149-4.181 3.037l-7.153-3.76c-.839-.441-1.842-.441-2.682 0l-7.153 3.76c-2.114 1.111-4.584-.684-4.18-3.037l1.366-7.964c.16-.935-.15-1.888-.829-2.55l-5.787-5.641c-1.71-1.667-.767-4.571 1.597-4.914l7.997-1.162c.938-.136 1.75-.726 2.169-1.576l3.576-7.246c1.061-2.142 4.114-2.142 5.171 0z" fill="#d6df58"/><path d="m88.976 158.2c-.904 0-1.803-.284-2.57-.841-1.359-.987-2.027-2.629-1.744-4.285l1.366-7.965c.077-.448-.071-.906-.397-1.223l-5.786-5.64c-1.203-1.173-1.628-2.894-1.108-4.492.519-1.598 1.874-2.74 3.536-2.982l7.997-1.162c.45-.065.839-.348 1.039-.754l3.578-7.248c.743-1.506 2.248-2.442 3.929-2.442 1.68 0 3.185.936 3.928 2.442l3.576 7.246c.202.408.59.69 1.04.756l7.997 1.162c1.662.241 3.018 1.384 3.536 2.982.52 1.598.095 3.319-1.108 4.492l-5.786 5.64c-.325.317-.475.775-.397 1.223l1.366 7.965c.283 1.656-.384 3.298-1.743 4.285-1.358.986-3.125 1.116-4.614.333l-7.152-3.76c-.402-.212-.883-.212-1.285 0l-7.152 3.76c-.65.34-1.35.508-2.046.508zm9.838-36.033c-.538 0-1.001.288-1.239.77l-3.577 7.247c-.637 1.293-1.87 2.189-3.298 2.396l-7.997 1.162c-.532.077-.949.429-1.115.94s-.035 1.041.35 1.416l5.787 5.64c1.032 1.007 1.503 2.456 1.26 3.878l-1.366 7.965c-.091.53.114 1.035.55 1.351s.98.355 1.454.105l7.152-3.76c1.277-.671 2.803-.67 4.078 0l7.152 3.76c.476.25 1.021.211 1.454-.105.436-.316.641-.821.55-1.351l-1.366-7.965c-.243-1.421.228-2.87 1.26-3.877l5.787-5.641c.385-.375.516-.905.35-1.416s-.583-.863-1.115-.94l-7.997-1.162c-1.427-.207-2.659-1.103-3.298-2.396l-3.576-7.246c-.24-.483-.702-.771-1.24-.771z" fill="#3a312a"/><path d="m150.49 122.273 3.576 7.246c.42.85 1.231 1.44 2.169 1.576l7.997 1.162c2.363.343 3.307 3.247 1.597 4.914l-5.786 5.641c-.679.662-.989 1.616-.829 2.55l1.366 7.964c.404 2.354-2.067 4.149-4.18 3.037l-7.153-3.76c-.839-.441-1.842-.441-2.681 0l-7.153 3.76c-2.114 1.111-4.584-.684-4.18-3.037l1.366-7.964c.16-.935-.15-1.888-.829-2.55l-5.786-5.641c-1.71-1.667-.767-4.571 1.597-4.914l7.997-1.162c.938-.136 1.75-.726 2.169-1.576l3.576-7.246c1.056-2.142 4.11-2.142 5.167 0z" fill="#d6df58"/><path d="m157.744 158.2c-.696 0-1.395-.167-2.043-.508l-7.152-3.76c-.402-.211-.883-.211-1.285 0l-7.152 3.76c-1.489.782-3.257.653-4.614-.333-1.359-.987-2.026-2.629-1.743-4.285l1.366-7.965c.077-.448-.071-.905-.397-1.223l-5.786-5.64c-1.203-1.173-1.628-2.894-1.108-4.492.519-1.598 1.874-2.74 3.536-2.982l7.997-1.162c.45-.065.838-.348 1.04-.756l3.576-7.246c.744-1.506 2.249-2.442 3.929-2.442s3.185.936 3.929 2.442l3.576 7.246c.202.408.59.69 1.04.756l7.997 1.162c1.662.241 3.018 1.384 3.536 2.982.52 1.598.095 3.319-1.108 4.492l-5.786 5.64c-.326.317-.475.774-.397 1.223l1.366 7.965c.283 1.656-.384 3.298-1.743 4.285-.77.558-1.669.841-2.574.841zm-9.838-7.427c.7 0 1.4.168 2.039.504l7.152 3.76c.475.25 1.02.211 1.454-.105.436-.316.641-.821.55-1.351l-1.366-7.965c-.243-1.422.228-2.872 1.261-3.878l5.786-5.64c.385-.375.516-.905.35-1.416s-.583-.863-1.115-.94l-7.997-1.162c-1.427-.207-2.659-1.103-3.298-2.396l-3.576-7.246c-.238-.482-.702-.77-1.239-.77-.538 0-1.001.288-1.239.77l-3.576 7.246c-.639 1.294-1.871 2.189-3.298 2.396l-7.997 1.162c-.532.077-.949.429-1.115.94s-.035 1.041.35 1.416l5.786 5.64c1.033 1.006 1.504 2.456 1.261 3.878l-1.366 7.965c-.091.53.114 1.035.55 1.351.437.316.982.354 1.454.105l7.152-3.76c.637-.336 1.337-.504 2.037-.504z" fill="#3a312a"/></g></svg>