<svg id="Layer_1" enable-background="new 0 0 512.002 512.002" height="512" viewBox="0 0 512.002 512.002" width="512" xmlns="http://www.w3.org/2000/svg"><g><g><path d="m437.765 190.403-2.21-22 2.21-3.428-3.683-39.472-6.402-3.975h-43.25l-5.249 3.975-3.683 39.471 2.307 2.554-2.307 24-2.681 2.168-9.636 103.266 4.749 3.531h78l4.152-3.531-9.637-103.266z" fill="#dbedff"/><path d="m403.151 193.696 2.68-2.168 2.307-24-2.307-2.554 3.683-39.471 5.249-3.975h-30.333l-5.249 3.975-3.683 39.471 2.307 2.554-2.307 24-2.681 2.168-9.636 103.266 4.749 3.531h30.333l-4.749-3.531z" fill="#b5dcff"/><path d="m478.812 296.962h-149.938l-7.777 7.566v172.667h161l2.292-2.05v-172.606c0-3.08-2.497-5.577-5.577-5.577z" fill="#8479c2"/><path d="m363.181 302.539c0-3.08 2.497-5.577 5.577-5.577h-39.884l-7.777 7.566v172.667h44.376l-2.292-2.05z" fill="#6e60b8"/><path d="m437.082 96.78h-60.901c-2.881 0-5.216 2.335-5.216 5.216v18.291c0 2.881 2.335 5.216 5.216 5.216h60.901c2.881 0 5.216-2.335 5.216-5.216v-18.291c0-2.881-2.335-5.216-5.216-5.216z" fill="#b5dcff"/><path d="m400.298 120.287v-18.291c0-2.881 2.335-5.216 5.216-5.216h-29.333c-2.881 0-5.216 2.335-5.216 5.216v18.291c0 2.881 2.335 5.216 5.216 5.216h29.333c-2.881 0-5.216-2.335-5.216-5.216z" fill="#8bcaff"/><path d="m397.681 25.946c-2.002.451-4.017-.615-4.935-2.45-8.633-17.253-31.786-21.422-45.903-8.345-1.686 1.562-4.319 1.555-6.009-.002-11.13-10.252-28.404-10.26-39.542-.007-1.691 1.557-4.331 1.569-6.012 0-17.946-16.745-49.05-4.541-49.05 21.573 0 26.119 31.108 38.312 49.05 21.573 1.681-1.568 4.321-1.557 6.012 0 11.136 10.249 28.415 10.25 39.549-.014 1.688-1.556 4.314-1.561 6.003-.006 10.036 9.239 25.228 10.28 36.419 2.522 1.7-1.178 3.988-1.131 5.538.238 12.47 11.015 33.525 2.577 33.525-15.305 0-13.27-12.383-22.542-24.645-19.777z" fill="#dbedff"/><path d="m388.802 38.279c-1.55-1.369-3.838-1.416-5.538-.238-11.191 7.758-26.383 6.717-36.419-2.522-1.688-1.555-4.315-1.55-6.003.006-11.134 10.264-28.414 10.263-39.549.014-1.691-1.557-4.331-1.569-6.012 0-15.079 14.068-39.45 7.696-46.847-10.197-1.405 3.398-2.204 7.207-2.204 11.375 0 26.119 31.108 38.312 49.05 21.573 1.681-1.568 4.321-1.557 6.012 0 11.136 10.249 28.415 10.25 39.549-.014 1.688-1.556 4.314-1.561 6.003-.006 10.036 9.239 25.228 10.28 36.419 2.522 1.7-1.178 3.988-1.131 5.538.238 12.47 11.015 33.525 2.577 33.525-15.305 0-4.281-1.293-8.141-3.45-11.32-6.49 9.443-20.705 12.15-30.074 3.874z" fill="#b5dcff"/><path d="m372.817 193.697h67.629l-2.681-28.723h-62.267z" fill="#f27182"/><path d="m375.498 164.974-2.681 28.723h30.333l2.681-28.723z" fill="#ed5469"/><path d="m361.84 446.384h89.583v30.065h-89.583z" fill="#00d2fc"/><path d="m361.84 446.384h42.139v30.065h-42.139z" fill="#00c2fb"/><path d="m361.84 391.47h89.583v30.065h-89.583z" fill="#00d2fc"/><path d="m361.84 391.47h42.139v30.065h-42.139z" fill="#00c2fb"/><path d="m320.039 247.116-88.201 44.402c-2.056 1.036-3.354 3.141-3.354 5.444l-3.387 3.531v176.702h99.667l4.111-2.05v-222.585c-.001-4.537-4.782-7.484-8.836-5.444z" fill="#ffc365"/><path d="m361.84 420.231h89.583v27.457h-89.583z" fill="#62ddfc"/><path d="m361.84 420.231h42.139v27.457h-42.139z" fill="#00d2fc"/><path d="m450.082 362.496h-86.901c-.466 0-.911-.09-1.341-.217v30.496h89.583v-30.496c-.431.127-.874.217-1.341.217z" fill="#62ddfc"/><path d="m403.348 362.496h-40.878c-.219 0-.428-.09-.631-.217v30.496h42.139v-30.496c-.202.127-.41.217-.63.217z" fill="#00d2fc"/><path d="m450.082 336.791h-86.901c-2.881 0-5.216 2.335-5.216 5.216v18.291c0 2.881 2.335 5.216 5.216 5.216h86.901c2.881 0 5.216-2.335 5.216-5.216v-18.291c0-2.881-2.335-5.216-5.216-5.216z" fill="#dbedff"/><path d="m398.763 360.297v-18.291c0-2.881 2.335-5.216 5.216-5.216h-40.798c-2.881 0-5.216 2.335-5.216 5.216v18.291c0 2.881 2.335 5.216 5.216 5.216h40.798c-2.881 0-5.216-2.335-5.216-5.216z" fill="#b5dcff"/><path d="m256.582 306.674c0-2.302 1.298-4.408 3.354-5.444l68.938-34.705v-13.965c0-4.538-4.781-7.484-8.835-5.444l-88.201 44.402c-2.056 1.036-3.354 3.141-3.354 5.444v178.183h28.097v-168.471z" fill="#ffa90f"/><path d="m219.649 247.116-88.201 44.402c-2.056 1.036-3.354 3.141-3.354 5.444l-4.331 3.531v179.368h97l7.721-4.716v-222.585c0-4.537-4.781-7.484-8.835-5.444z" fill="#ffc365"/><path d="m156.192 306.674c0-2.302 1.298-4.408 3.354-5.444l68.938-34.705v-13.965c0-4.538-4.781-7.484-8.835-5.444l-88.201 44.402c-2.056 1.036-3.354 3.141-3.354 5.444v178.183h28.097v-168.471z" fill="#ffa90f"/><path d="m119.259 247.116-88.201 44.402c-2.056 1.036-3.354 3.141-3.354 5.444v178.183h100.39v-222.585c0-4.538-4.781-7.484-8.835-5.444z" fill="#ffc365"/><path d="m55.802 306.674c0-2.302 1.298-4.408 3.354-5.444l68.938-34.705v-13.965c0-4.538-4.781-7.484-8.835-5.444l-88.201 44.402c-2.056 1.036-3.354 3.141-3.354 5.444v178.183h28.097v-168.471z" fill="#ffa90f"/><path d="m497.299 474.145h-482.505c-4.003 0-7.249 3.245-7.249 7.249v15.815c0 4.003 3.245 7.249 7.249 7.249h482.505c4.003 0 7.249-3.245 7.249-7.249v-15.815c0-4.004-3.245-7.249-7.249-7.249z" fill="#dbedff"/><path d="m497.299 489.301h-482.505c-4.003 0-7.249-3.245-7.249-7.249v15.156c0 4.003 3.245 7.249 7.249 7.249h482.505c4.003 0 7.249-3.245 7.249-7.249v-15.156c0 4.004-3.245 7.249-7.249 7.249z" fill="#b5dcff"/><g fill="#00d2fc"><path d="m295.584 319.319h-33.81c-3.42 0-6.193 2.772-6.193 6.193v37.81c0 3.42 2.773 6.193 6.193 6.193h33.81c3.42 0 6.193-2.772 6.193-6.193v-37.81c0-3.421-2.773-6.193-6.193-6.193z"/><path d="m195.194 319.319h-33.81c-3.42 0-6.193 2.772-6.193 6.193v37.81c0 3.42 2.773 6.193 6.193 6.193h33.81c3.42 0 6.193-2.772 6.193-6.193v-37.81c0-3.421-2.773-6.193-6.193-6.193z"/><path d="m94.804 319.319h-33.81c-3.42 0-6.193 2.772-6.193 6.193v37.81c0 3.42 2.773 6.193 6.193 6.193h33.81c3.42 0 6.193-2.772 6.193-6.193v-37.81c0-3.421-2.773-6.193-6.193-6.193z"/></g><path d="m278.679 363.321v-37.81c0-3.42 2.773-6.193 6.193-6.193h-23.098c-3.42 0-6.193 2.772-6.193 6.193v37.81c0 3.42 2.773 6.193 6.193 6.193h23.098c-3.42 0-6.193-2.773-6.193-6.193z" fill="#00c2fb"/><path d="m178.289 363.321v-37.81c0-3.42 2.773-6.193 6.193-6.193h-23.098c-3.42 0-6.193 2.772-6.193 6.193v37.81c0 3.42 2.773 6.193 6.193 6.193h23.098c-3.42 0-6.193-2.773-6.193-6.193z" fill="#00c2fb"/><path d="m77.899 363.321v-37.81c0-3.42 2.773-6.193 6.193-6.193h-23.098c-3.42 0-6.193 2.772-6.193 6.193v37.81c0 3.42 2.773 6.193 6.193 6.193h23.098c-3.42 0-6.193-2.773-6.193-6.193z" fill="#00c2fb"/></g><g><path d="m60.949 377.056h33.81c7.55 0 13.692-6.143 13.692-13.693v-37.81c0-7.55-6.143-13.692-13.692-13.692h-33.81c-7.551 0-13.693 6.143-13.693 13.692v37.81c0 7.55 6.142 13.693 13.693 13.693zm1.307-50.195h31.195v35.195h-31.195z"/><path d="m161.339 377.056h33.81c7.55 0 13.692-6.143 13.692-13.693v-37.81c0-7.55-6.143-13.692-13.692-13.692h-33.81c-7.551 0-13.693 6.143-13.693 13.692v37.81c0 7.55 6.142 13.693 13.693 13.693zm1.307-50.195h31.195v35.195h-31.195z"/><path d="m261.729 377.056h33.81c7.551 0 13.693-6.143 13.693-13.693v-37.81c0-7.55-6.143-13.692-13.693-13.692h-33.81c-7.55 0-13.692 6.143-13.692 13.692v37.81c-.001 7.55 6.142 13.693 13.692 13.693zm1.307-50.195h31.195v35.195h-31.195z"/><path d="m398.365 18.243c-5.36-9.293-14.432-15.669-25.2-17.627-10.595-1.926-21.147.722-29.377 7.281-13.239-10.464-32.292-10.467-45.537-.008-10.461-8.343-24.909-10.237-37.575-4.733-13.564 5.896-21.991 18.771-21.991 33.602 0 14.83 8.426 27.705 21.988 33.6 12.669 5.506 27.116 3.612 37.578-4.731 13.25 10.463 32.313 10.456 45.553-.02 11.935 9.418 28.824 10.484 41.846 2.586 17.719 13.034 44.132.802 44.132-22.426-.001-17.031-15.111-29.735-31.417-27.524zm-4.643 37.208c-4.118-3.638-10.194-3.957-14.775-.781-8.274 5.735-19.657 4.946-27.066-1.876-4.533-4.173-11.635-4.169-16.166.009-8.236 7.591-21.145 7.596-29.387.011-4.566-4.204-11.687-4.188-16.208.033-7.522 7.019-17.052 6.543-23.467 3.754-8.12-3.529-12.968-10.948-12.968-19.843 0-8.896 4.849-16.315 12.971-19.845 7.574-3.292 16.728-2.529 23.463 3.756 4.523 4.221 11.643 4.236 16.209.034 8.238-7.585 21.143-7.583 29.381.005 4.549 4.19 11.659 4.185 16.187-.012 4.991-4.622 11.762-6.562 18.587-5.322 6.815 1.239 12.469 5.438 15.513 11.52 2.488 4.977 7.953 7.613 13.29 6.411h.001c7.568-1.709 15.496 3.97 15.496 12.462-.002 11.365-13.385 16.467-21.061 9.684z"/><path d="m497.254 467.688h-5.41v-165.106c0-7.211-5.866-13.077-13.077-13.077h-21.897l-2.974-31.867c-.386-4.124-4.044-7.157-8.165-6.771-4.124.385-7.155 4.041-6.771 8.165l2.844 30.473h-70.436l8.237-88.265h53.961l2.127 22.792c.385 4.124 4.03 7.153 8.165 6.771 4.124-.385 7.155-4.041 6.771-8.165-1.007-10.794-7.479-80.152-8.462-90.683 4.461-1.977 7.586-6.44 7.586-11.625v-18.291c0-7.012-5.705-12.716-12.717-12.716h-60.9c-7.012 0-12.717 5.704-12.717 12.716v18.291c0 5.186 3.125 9.648 7.586 11.625-.641 6.87-14.062 150.685-14.702 157.55h-19.975v-36.902c0-10.131-10.672-16.689-19.707-12.143l-80.683 40.617v-28.475c0-10.131-10.672-16.689-19.707-12.143l-80.683 40.617v-28.474c0-10.131-10.672-16.689-19.707-12.143l-88.201 44.403c-4.614 2.324-7.48 6.976-7.48 12.143v170.683h-5.41c-8.134 0-14.75 6.616-14.75 14.748v14.816c0 8.132 6.616 14.748 14.749 14.748h223.752c4.143 0 7.5-3.358 7.5-7.5s-3.357-7.5-7.5-7.5h-223.501v-14.313h482.002v14.313h-223.501c-4.143 0-7.5 3.358-7.5 7.5s3.357 7.5 7.5 7.5h223.753c8.132 0 14.748-6.616 14.748-14.749v-14.816c0-8.131-6.616-14.747-14.748-14.747zm-116.249-281.449 1.28-13.722h48.601l1.281 13.722zm2.68-28.722 2.284-24.472h41.234l2.284 24.472zm-5.266-53.194h56.334v13.722h-.717-54.9-.717zm-257.87 363.365h-85.39v-169.818l85.39-42.987zm100.389 0h-85.39v-169.818l85.39-42.987zm100.39 0h-85.39v-169.817l85.39-42.987zm122.549 0h-74.582v-12.457h74.582zm0-27.457h-74.582v-12.457h74.582zm0-27.457h-74.582v-12.457h74.582zm0-27.457h-74.582v-12.261h74.582zm3.876-27.261h-82.334v-13.722h82.334zm29.091 109.632h-17.967c0-10.892 0-89.051 0-98.227 2.386-2.313 3.876-5.544 3.876-9.121v-18.29c0-7.012-5.705-12.716-12.717-12.716h-86.9c-7.012 0-12.717 5.704-12.717 12.716v18.291c0 3.577 1.49 6.808 3.876 9.121v98.227h-17.967v-163.184h140.516z"/></g></g></svg>