<svg height="480pt" viewBox="0 -16 480.43054 480" width="480pt" xmlns="http://www.w3.org/2000/svg"><path d="m423.71875 174.234375-1.640625-67.179687c-.757813-14.984376 10.394531-27.921876 25.328125-29.378907l23.019531 145.269531c.28125 18.230469-5.320312 36.070313-15.96875 50.871094l-56.351562 68.199219c-5.183594 6.273437-7.742188 14.3125-7.136719 22.429687l1.507812 20.140626-78.460937-37.371094.300781-.640625c-6.21875-30.59375 5.183594-62.097657 29.539063-81.628907l4.472656-3.589843c7.003906-5.617188 12.648437-12.746094 16.507813-20.851563l21.542968-45.21875c6.753906-14.195312 21.695313-22.617187 37.339844-21.050781zm0 0" fill="#f7caa5"/><path d="m392.476562 384.585938 8.832032 4.210937-23.613282 49.589844-108.816406-51.832031 23.617188-49.589844 21.519531 10.25zm0 0" fill="#00acea"/><path d="m339.21875 80.214844v58h-70v70h-58v-70h-70v-58h70v-70h58v70zm0 0" fill="#00efd1"/><path d="m87.957031 384.585938 78.460938-37.371094 21.519531-10.25 23.621094 49.589844-108.820313 51.832031-23.609375-49.589844zm0 0" fill="#00acea"/><path d="m56.71875 174.234375c15.640625-1.566406 30.582031 6.855469 37.339844 21.050781l21.539062 45.21875c3.859375 8.105469 9.503906 15.234375 16.507813 20.851563l4.472656 3.589843c24.359375 19.53125 35.757813 51.035157 29.539063 81.628907l.300781.640625-78.460938 37.371094 1.511719-20.140626c.605469-8.117187-1.953125-16.15625-7.140625-22.429687l-56.351563-68.199219c-10.648437-14.800781-16.25-32.640625-15.96875-50.871094l23.019532-145.269531c14.382812 1.402344 25.355468 13.488281 25.371094 27.941407 0 .476562-.019532.957031-.042969 1.4375zm0 0" fill="#f7caa5"/><g fill="#083863"><path d="m457.285156 76.117188c-.824218-5.230469-5.582031-8.910157-10.851562-8.390626-20.207032 1.945313-35.328125 19.421876-34.351563 39.699219l1.394531 57.089844c-15.71875 2.214844-29.28125 12.152344-36.128906 26.476563l-21.539062 45.21875c-3.222656 6.738281-7.917969 12.671874-13.742188 17.351562l-4.464844 3.585938c-22.351562 17.835937-35.25 44.972656-34.960937 73.566406l-5.84375-2.78125c-4.984375-2.375-10.953125-.257813-13.328125 4.726562l-23.621094 49.589844c-2.375 4.988281-.257812 10.953125 4.730469 13.328125l108.820313 51.835937c4.988281 2.375 10.953124.257813 13.328124-4.726562l23.609376-49.589844c2.375-4.984375.257812-10.949218-4.726563-13.328125l-3.597656-1.714843-1.074219-14.34375c-.425781-5.546876 1.324219-11.042969 4.875-15.324219l56.351562-68.199219c.140626-.171875.277344-.347656.40625-.53125 11.863282-16.566406 18.121094-36.488281 17.851563-56.863281-.007813-.472657-.046875-.945313-.121094-1.410157zm-84.316406 348.9375-90.761719-43.226563 15.019531-31.535156 90.753907 43.226562zm73.558594-157.339844-56.125 67.925781c-6.851563 8.257813-10.226563 18.855469-9.40625 29.554687l.222656 2.953126-57.785156-27.523438c-3.851563-25.765625 6.316406-51.632812 26.683594-67.882812l4.464843-3.585938c8.171875-6.570312 14.761719-14.890625 19.285157-24.351562l21.539062-45.222657c4.816406-10.089843 15.300781-16.21875 26.457031-15.46875l-30.285156 63.59375c-2.375 4.984375-.257813 10.953125 4.730469 13.328125 4.984375 2.375 10.953125.257813 13.328125-4.730468l35.398437-74.328126c2.375-4.988281.257813-10.957031-4.730468-13.332031-2.191407-1.039062-4.457032-1.910156-6.78125-2.605469l-1.449219-59.222656c0-.089844-.003907-.175781-.007813-.265625-.320312-6.070312 2.4375-11.890625 7.335938-15.488281l21.035156 132.726562c.058594 15.734376-4.800781 31.09375-13.910156 43.925782zm0 0"/><path d="m79.496094 363.699219-1.078125 14.355469-3.601563 1.714843c-4.980468 2.375-7.097656 8.339844-4.722656 13.324219l23.609375 49.589844c2.371094 4.988281 8.339844 7.105468 13.328125 4.730468l108.820312-51.832031c4.984376-2.375 7.101563-8.339843 4.726563-13.328125l-23.617187-49.589844c-2.375-4.984374-8.34375-7.101562-13.328126-4.726562l-5.84375 2.78125c.289063-28.59375-12.601562-55.734375-34.957031-73.570312l-4.476562-3.59375c-5.820313-4.683594-10.515625-10.609376-13.734375-17.347657l-21.539063-45.21875c-6.847656-14.324219-20.410156-24.265625-36.132812-26.480469l1.402343-57.121093c.023438-.589844.042969-1.179688.042969-1.769531.058594-19.628907-14.859375-36.0625-34.398437-37.894532-5.265625-.511718-10.019532 3.167969-10.847656 8.394532l-23.019532 145.269531c-.0703122.464843-.113281.9375-.1210935 1.410156-.2656245 20.371094 5.9882815 40.296875 17.8515625 56.859375.128906.179688.265625.355469.410156.527344l56.355469 68.207031c3.546875 4.277344 5.292969 9.765625 4.871094 15.308594zm118.734375 18.128906-90.765625 43.226563-15.011719-31.535157 78.265625-37.277343 12.492188-5.949219zm-178.230469-158.042969 21.035156-132.746094c4.640625 3.402344 7.378906 8.820313 7.363282 14.578126 0 .335937-.019532.671874-.03125 1.011718l-.007813.183594-1.441406 59.226562c-2.324219.695313-4.59375 1.566407-6.785157 2.605469-4.988281 2.375-7.105468 8.34375-4.730468 13.332031l35.398437 74.328126c2.375 4.988281 8.34375 7.105468 13.328125 4.730468 4.988282-2.375 7.105469-8.34375 4.730469-13.328125l-30.289063-63.589843c11.15625-.75 21.640626 5.378906 26.457032 15.46875l21.542968 45.222656c4.519532 9.457031 11.109376 17.777344 19.277344 24.34375l4.472656 3.59375c20.363282 16.25 30.53125 42.113281 26.679688 67.878906l-57.78125 27.523438.222656-2.96875c.816406-10.691407-2.554687-21.28125-9.402344-29.535157l-56.132812-67.929687c-9.109375-12.832032-13.96875-28.191406-13.90625-43.929688zm0 0"/><path d="m141.21875 148.214844h60v60c0 5.523437 4.476562 10 10 10h58c5.519531 0 10-4.476563 10-10v-60h60c5.519531 0 10-4.476563 10-10v-58c0-5.523438-4.480469-10-10-10h-60v-60c0-5.523438-4.480469-10-10-10h-58c-5.523438 0-10 4.476562-10 10v60h-60c-5.523438 0-10 4.476562-10 10v58c0 5.523437 4.476562 10 10 10zm10-58h60c5.519531 0 10-4.476563 10-10v-60h38v60c0 5.523437 4.476562 10 10 10h60v38h-60c-5.523438 0-10 4.476562-10 10v60h-38v-60c0-5.523438-4.480469-10-10-10h-60zm0 0"/></g></svg>