<?xml version="1.0" encoding="iso-8859-1"?>
<!-- Generator: Adobe Illustrator 19.0.0, SVG Export Plug-In . SVG Version: 6.00 Build 0)  -->
<svg version="1.1" id="Layer_1" xmlns="http://www.w3.org/2000/svg" xmlns:xlink="http://www.w3.org/1999/xlink" x="0px" y="0px"
	 viewBox="0 0 503.893 503.893" style="enable-background:new 0 0 503.893 503.893;" xml:space="preserve">
<g transform="translate(5 1)">
	<g>
		<polygon style="fill:#F2EDDA;" points="324.173,174.36 170.573,327.96 170.573,498.627 272.973,498.627 272.973,481.56 
			290.04,481.56 341.24,481.56 358.307,481.56 358.307,498.627 460.707,498.627 460.707,302.36 349.773,191.427 330.147,171.8 
			328.44,170.093 		"/>
		<rect x="272.973" y="481.56" style="fill:#F2EDDA;" width="85.333" height="17.067"/>
	</g>
	<polygon style="fill:#FFD0A1;" points="341.24,383.427 341.24,447.427 290.04,447.427 290.04,345.027 341.24,345.027 	"/>
	<path style="fill:#80D6FA;" d="M375.373,413.293h51.2v-68.267h-51.2V413.293z M204.707,413.293h51.2v-68.267h-51.2V413.293z"/>
	<polygon style="fill:#FF7474;" points="392.44,174.36 392.44,191.427 349.773,191.427 460.707,302.36 494.84,336.493 
		494.84,191.427 426.573,191.427 426.573,174.36 	"/>
	<polygon style="fill:#80D6FA;" points="324.173,89.027 324.173,174.36 170.573,327.96 68.173,430.36 68.173,89.027 	"/>
	<path style="fill:#ECF4F7;" d="M290.04,54.893H102.307H34.04v409.6l34.133-34.133V89.027h256v85.333l4.267-4.267l29.867-29.867
		V54.893H290.04z M170.573,3.693V20.76h-68.267v34.133H290.04V20.76h-68.267V3.693H170.573z"/>
</g>
<path style="fill:#51565F;" d="M4.907,503.893c-0.853,0-2.56,0-3.413-0.853c-0.853-0.853-0.853-1.707-0.853-3.413
	s0-2.56,0.853-3.413L496.427,1.28c1.707-1.707,4.267-1.707,5.973,0c0.853,0.853,0.853,1.707,0.853,3.413s0,2.56-0.853,3.413
	L7.467,503.04C7.467,503.893,5.76,503.893,4.907,503.893z M465.707,503.893H397.44c-2.56,0-4.267-1.707-4.267-4.267
	c0-2.56,1.707-4.267,4.267-4.267h64V346.027c0-2.56,1.707-4.267,4.267-4.267s4.267,1.707,4.267,4.267v153.6
	C469.973,502.187,468.267,503.893,465.707,503.893z M363.307,503.893c-2.56,0-4.267-1.707-4.267-4.267v-12.8h-76.8v12.8
	c0,2.56-1.707,4.267-4.267,4.267h-102.4c-2.56,0-4.267-1.707-4.267-4.267v-128c0-2.56,1.707-4.267,4.267-4.267
	s4.267,1.707,4.267,4.267V495.36h93.867v-12.8c0-2.56,1.707-4.267,4.267-4.267h85.333c2.56,0,4.267,1.707,4.267,4.267v17.067
	C367.573,502.187,365.867,503.893,363.307,503.893z M346.24,452.693c-2.56,0-4.267-1.707-4.267-4.267v-46.933h-12.8
	c-2.56,0-4.267-1.707-4.267-4.267s1.707-4.267,4.267-4.267h12.8v-42.667h-42.667v98.133c0,2.56-1.707,4.267-4.267,4.267
	s-4.267-1.707-4.267-4.267v-102.4c0-2.56,1.707-4.267,4.267-4.267h51.2c2.56,0,4.267,1.707,4.267,4.267v102.4
	C350.507,450.987,348.8,452.693,346.24,452.693z M39.04,427.093c-2.56,0-4.267-1.707-4.267-4.267V55.893
	c0-2.56,1.707-4.267,4.267-4.267h64V21.76c0-2.56,1.707-4.267,4.267-4.267h64v-12.8c0-2.56,1.707-4.267,4.267-4.267h51.2
	c2.56,0,4.267,1.707,4.267,4.267v12.8h64c2.56,0,4.267,1.707,4.267,4.267v29.867h64c2.56,0,4.267,1.707,4.267,4.267V98.56
	c0,2.56-1.707,4.267-4.267,4.267s-4.267-1.707-4.267-4.267v-38.4h-217.6c-2.56,0-4.267-1.707-4.267-4.267
	c0-2.56,1.707-4.267,4.267-4.267h149.333v-25.6h-64c-2.56,0-4.267-1.707-4.267-4.267V8.96H179.84v12.8
	c0,2.56-1.707,4.267-4.267,4.267h-64v29.867c0,2.56-1.707,4.267-4.267,4.267h-64v362.667C43.307,425.387,41.6,427.093,39.04,427.093
	z M431.573,418.56h-51.2c-2.56,0-4.267-1.707-4.267-4.267v-68.267c0-2.56,1.707-4.267,4.267-4.267h51.2
	c2.56,0,4.267,1.707,4.267,4.267v68.267C435.84,416.853,434.133,418.56,431.573,418.56z M384.64,410.027h42.667v-59.733H384.64
	V410.027z M260.907,418.56h-51.2c-2.56,0-4.267-1.707-4.267-4.267v-68.267c0-2.56,1.707-4.267,4.267-4.267h51.2
	c2.56,0,4.267,1.707,4.267,4.267v68.267C265.173,416.853,263.467,418.56,260.907,418.56z M213.973,410.027h42.667v-59.733h-42.667
	V410.027z M73.173,392.96c-2.56,0-4.267-1.707-4.267-4.267V90.027c0-2.56,1.707-4.267,4.267-4.267h256
	c2.56,0,4.267,1.707,4.267,4.267v42.667c0,2.56-1.707,4.267-4.267,4.267c-2.56,0-4.267-1.707-4.267-4.267v-38.4H282.24v59.733
	h21.333c2.56,0,4.267,1.707,4.267,4.267s-1.707,4.267-4.267,4.267H282.24v21.333c0,2.56-1.707,4.267-4.267,4.267
	s-4.267-1.707-4.267-4.267V162.56H231.04v59.733h4.267c2.56,0,4.267,1.707,4.267,4.267c0,2.56-1.707,4.267-4.267,4.267h-4.267v4.267
	c0,2.56-1.707,4.267-4.267,4.267s-4.267-1.707-4.267-4.267v-4.267H179.84v55.467c0,2.56-1.707,4.267-4.267,4.267
	s-4.267-1.707-4.267-4.267v-55.467H128.64v59.733h38.4c2.56,0,4.267,1.707,4.267,4.267c0,2.56-1.707,4.267-4.267,4.267h-38.4v38.4
	c0,2.56-1.707,4.267-4.267,4.267s-4.267-1.707-4.267-4.267v-38.4H77.44v59.733h12.8c2.56,0,4.267,1.707,4.267,4.267
	c0,2.56-1.707,4.267-4.267,4.267h-12.8v21.333C77.44,391.253,75.733,392.96,73.173,392.96z M77.44,290.56h42.667v-59.733H77.44
	V290.56z M179.84,222.293h42.667V162.56H179.84V222.293z M128.64,222.293h42.667V162.56H128.64V222.293z M77.44,222.293h42.667
	V162.56H77.44V222.293z M231.04,154.027h42.667V94.293H231.04V154.027z M179.84,154.027h42.667V94.293H179.84V154.027z
	 M128.64,154.027h42.667V94.293H128.64V154.027z M77.44,154.027h42.667V94.293H77.44V154.027z M499.84,341.76
	c-0.853,0-2.56-0.853-3.413-0.853L351.36,195.84c-1.707-1.707-1.707-4.267,0-5.973s4.267-1.707,5.973,0L494.72,327.253v-130.56h-64
	c-2.56,0-4.267-1.707-4.267-4.267v-12.8h-25.6v12.8c0,2.56-1.707,4.267-4.267,4.267s-4.267-1.707-4.267-4.267V175.36
	c0-2.56,1.707-4.267,4.267-4.267h34.133c2.56,0,4.267,1.707,4.267,4.267v12.8h64c2.56,0,4.267,1.707,4.267,4.267v145.067
	c0,1.707-0.853,3.413-2.56,4.267C500.693,341.76,500.693,341.76,499.84,341.76z"/>
<g>
</g>
<g>
</g>
<g>
</g>
<g>
</g>
<g>
</g>
<g>
</g>
<g>
</g>
<g>
</g>
<g>
</g>
<g>
</g>
<g>
</g>
<g>
</g>
<g>
</g>
<g>
</g>
<g>
</g>
</svg>
