<svg height="472pt" viewBox="-3 0 471 472" width="472pt" xmlns="http://www.w3.org/2000/svg"><path d="m294.101562 456-21.601562-72h-80l-21.601562 72h-26.398438v16h176v-16zm0 0" fill="#d6d9db"/><path d="m24.5 64c-13.253906 0-24 10.746094-24 24v248h464v-248c0-13.253906-10.746094-24-24-24zm0 0" fill="#4398d1"/><path d="m.5 336v24c0 13.253906 10.746094 24 24 24h416c13.253906 0 24-10.746094 24-24v-24zm0 0" fill="#d6d9db"/><path d="m279.699219 408-7.199219-24h-80l-7.199219 24zm0 0" fill="#c1c7c9"/><path d="m392.5 0h-320c-13.253906 0-24 10.746094-24 24v312h368v-312c0-13.253906-10.746094-24-24-24zm0 0" fill="#87ced9"/><path d="m392.5 0h-64l-280 280v56h368v-312c0-13.253906-10.746094-24-24-24zm0 0" fill="#71c4d1"/><g fill="#5eb3d1"><path d="m72.5 24h16v16h-16zm0 0"/><path d="m104.5 24h16v16h-16zm0 0"/><path d="m136.5 24h16v16h-16zm0 0"/></g><path d="m298.835938 234.414062-125.046876-15.503906-18.472656-82.71875 106.582032-67.222656zm0 0" fill="#e0e3e6"/><path d="m113.960938 145.425781 41.382812-9.242187 18.480469 82.761718-41.382813 9.242188c-22.855468 5.101562-45.515625-9.289062-50.621094-32.140625-5.101562-22.855469 9.289063-45.519531 32.140626-50.621094zm0 0" fill="#e3584b"/><path d="m155.316406 136.191406 13.183594 59.175782-45.6875 10.234374c-14.636719 3.269532-29.949219-.691406-41.167969-10.640624.070313.367187.101563.726562.191407 1.09375 5.113281 22.832031 27.753906 37.207031 50.59375 32.121093l41.359374-9.230469zm0 0" fill="#d64740"/><path d="m124.160156 230 33.089844-7.386719 14.777344 66.175781-33.089844 7.390626zm0 0" fill="#e0e3e6"/><path d="m336.535156 130.957031 41.363282-9.230469 3.484374 15.617188-41.367187 9.226562zm0 0" fill="#a7e1eb"/><path d="m312.5 60.683594 24-24.003906 11.316406 11.3125-24.003906 24.003906zm0 0" fill="#a7e1eb"/><path d="m348.925781 215.160156 7.15625-14.3125 31.996094 16-7.152344 14.3125zm0 0" fill="#a7e1eb"/><path d="m323.578125 263.609375c-4.429687 1.082031-9.109375.335937-12.984375-2.070313-3.871094-2.410156-6.613281-6.277343-7.597656-10.730468l-44.25-198.160156c-2.039063-9.136719 3.714844-18.199219 12.851562-20.242188 9.136719-2.035156 18.195313 3.71875 20.238282 12.859375l44.257812 198.183594c2.003906 9.003906-3.554688 17.960937-12.515625 20.160156zm0 0" fill="#e3584b"/><path d="m48.5 320h368v16h-368zm0 0" fill="#5eb3d1"/><path d="m416.5 64h16v272h-16zm0 0" fill="#3e8cc7"/><path d="m336.09375 243.449219-24.914062-111.546875c-6.265626 13.832031-15.328126 26.214844-26.617188 36.371094l18.402344 82.566406c2.039062 9.140625 11.105468 14.894531 20.242187 12.851562 9.140625-2.039062 14.894531-11.105468 12.851563-20.242187zm0 0" fill="#d64740"/><path d="m168.402344 194.800781 5.386718 24.109375 125.046876 15.503906-14.472657-64.820312zm0 0" fill="#c7cacc"/></svg>