<svg xmlns="http://www.w3.org/2000/svg" height="600pt" version="1.1" viewBox="-39 0 600 600.36088" width="600pt">
<g id="surface1">
<path d="M 470.300781 591.851562 L 493.292969 591.851562 C 493.292969 591.851562 514.984375 591.851562 514.984375 563.980469 L 514.984375 181.648438 L 470.464844 181.648438 Z M 470.300781 591.851562 " style=" stroke:none;fill-rule:nonzero;fill:rgb(74.901961%,74.901961%,74.901961%);fill-opacity:1;" />
<path d="M 470.300781 591.851562 L 42.910156 591.851562 C 42.910156 591.851562 8.371094 591.851562 8.371094 556.171875 L 8.371094 8.132812 L 470.300781 8.132812 Z M 470.300781 591.851562 " style=" stroke:none;fill-rule:nonzero;fill:rgb(100%,100%,100%);fill-opacity:1;" />
<path d="M 60.96875 254.039062 L 238.277344 254.039062 L 238.277344 431.347656 L 60.96875 431.347656 Z M 60.96875 254.039062 " style=" stroke:none;fill-rule:nonzero;fill:rgb(34.117647%,86.27451%,94.901961%);fill-opacity:1;" />
<path d="M 42.910156 599.984375 L 493.292969 599.984375 C 503.539062 599.984375 522.953125 592.449219 522.953125 563.980469 L 522.953125 181.648438 C 522.953125 177.160156 519.308594 173.515625 514.820312 173.515625 L 478.4375 173.515625 L 478.4375 8.132812 C 478.4375 3.644531 474.792969 0 470.300781 0 L 8.371094 0 C 3.882812 0 0.238281 3.644531 0.238281 8.132812 L 0.238281 555.792969 C -1.175781 578.75 16.28125 598.503906 39.242188 599.921875 C 40.460938 599.996094 41.6875 600.019531 42.910156 599.984375 Z M 506.6875 189.945312 L 506.6875 564.089844 C 506.6875 582.039062 496.328125 583.773438 493.292969 583.828125 L 478.4375 583.828125 L 478.4375 190 Z M 16.503906 16.429688 L 462.167969 16.429688 L 462.167969 583.71875 L 42.910156 583.71875 C 28.785156 584.210938 16.933594 573.15625 16.445312 559.03125 C 16.410156 558.078125 16.433594 557.121094 16.503906 556.171875 C 16.503906 556.171875 16.503906 16.429688 16.503906 16.429688 Z M 16.503906 16.429688 " style=" stroke:none;fill-rule:nonzero;fill:rgb(20.392157%,18.823529%,23.921569%);fill-opacity:1;" />
<path d="M 60.96875 190 L 405.339844 190 C 409.832031 190 413.476562 186.355469 413.476562 181.867188 C 413.476562 177.378906 409.832031 173.734375 405.339844 173.734375 L 60.96875 173.734375 C 56.476562 173.734375 52.832031 177.378906 52.832031 181.867188 C 52.832031 186.355469 56.472656 190 60.96875 190 Z M 60.96875 190 " style=" stroke:none;fill-rule:nonzero;fill:rgb(20.392157%,18.823529%,23.921569%);fill-opacity:1;" />
<path d="M 60.96875 439.484375 L 238.441406 439.484375 C 242.929688 439.484375 246.574219 435.839844 246.574219 431.347656 L 246.574219 254.039062 C 246.574219 249.550781 242.929688 245.90625 238.441406 245.90625 L 60.96875 245.90625 C 56.476562 245.90625 52.832031 249.550781 52.832031 254.039062 L 52.832031 431.347656 C 52.832031 435.839844 56.472656 439.484375 60.96875 439.484375 Z M 69.101562 262.171875 L 230.144531 262.171875 L 230.144531 423.214844 L 69.101562 423.214844 Z M 69.101562 262.171875 " style=" stroke:none;fill-rule:nonzero;fill:rgb(20.392157%,18.823529%,23.921569%);fill-opacity:1;" />
<path d="M 405.339844 245.902344 L 271.300781 245.902344 C 266.8125 245.902344 263.167969 249.546875 263.167969 254.039062 C 263.167969 258.527344 266.8125 262.171875 271.300781 262.171875 L 405.339844 262.171875 C 409.832031 262.171875 413.476562 258.527344 413.476562 254.039062 C 413.476562 249.546875 409.832031 245.902344 405.339844 245.902344 Z M 405.339844 245.902344 " style=" stroke:none;fill-rule:nonzero;fill:rgb(20.392157%,18.823529%,23.921569%);fill-opacity:1;" />
<path d="M 405.339844 291.941406 L 271.300781 291.941406 C 266.8125 291.945312 263.171875 295.59375 263.175781 300.085938 C 263.183594 304.570312 266.816406 308.195312 271.300781 308.207031 L 405.339844 308.207031 C 409.832031 308.207031 413.476562 304.5625 413.476562 300.074219 C 413.476562 295.585938 409.832031 291.941406 405.339844 291.941406 Z M 405.339844 291.941406 " style=" stroke:none;fill-rule:nonzero;fill:rgb(20.392157%,18.823529%,23.921569%);fill-opacity:1;" />
<path d="M 413.476562 346.109375 C 413.476562 341.621094 409.832031 337.976562 405.339844 337.976562 L 271.300781 337.976562 C 266.8125 337.976562 263.167969 341.621094 263.167969 346.109375 C 263.167969 350.597656 266.8125 354.242188 271.300781 354.242188 L 405.339844 354.242188 C 409.832031 354.242188 413.476562 350.597656 413.476562 346.109375 Z M 413.476562 346.109375 " style=" stroke:none;fill-rule:nonzero;fill:rgb(20.392157%,18.823529%,23.921569%);fill-opacity:1;" />
<path d="M 271.300781 384.066406 C 266.8125 384.066406 263.167969 387.710938 263.167969 392.199219 C 263.167969 396.6875 266.8125 400.332031 271.300781 400.332031 L 338.320312 400.332031 C 342.808594 400.332031 346.453125 396.6875 346.453125 392.199219 C 346.453125 387.710938 342.808594 384.066406 338.320312 384.066406 Z M 271.300781 384.066406 " style=" stroke:none;fill-rule:nonzero;fill:rgb(20.392157%,18.823529%,23.921569%);fill-opacity:1;" />
<path d="M 60.96875 501.894531 L 405.339844 501.894531 C 409.832031 501.894531 413.476562 498.25 413.476562 493.761719 C 413.476562 489.273438 409.832031 485.628906 405.339844 485.628906 L 60.96875 485.628906 C 56.476562 485.628906 52.832031 489.273438 52.832031 493.761719 C 52.832031 498.25 56.472656 501.894531 60.96875 501.894531 Z M 60.96875 501.894531 " style=" stroke:none;fill-rule:nonzero;fill:rgb(20.392157%,18.823529%,23.921569%);fill-opacity:1;" />
<path d="M 60.96875 544.949219 L 239.363281 544.949219 C 243.851562 544.949219 247.496094 541.304688 247.496094 536.816406 C 247.496094 532.324219 243.851562 528.683594 239.363281 528.683594 L 60.96875 528.683594 C 56.476562 528.683594 52.832031 532.324219 52.832031 536.816406 C 52.832031 541.304688 56.472656 544.949219 60.96875 544.949219 Z M 60.96875 544.949219 " style=" stroke:none;fill-rule:nonzero;fill:rgb(20.392157%,18.823529%,23.921569%);fill-opacity:1;" />
<path d="M 98.925781 313.035156 L 80.054688 368.503906 L 87.484375 368.503906 L 93.230469 351.042969 L 112.914062 351.042969 L 118.824219 368.503906 L 126.46875 368.503906 L 107.546875 313.035156 Z M 94.75 345.566406 L 100.171875 329.300781 C 101.253906 325.9375 102.125 322.523438 102.992188 319.269531 C 103.804688 322.46875 104.617188 325.777344 105.863281 329.410156 L 111.289062 345.351562 Z M 94.75 345.566406 " style=" stroke:none;fill-rule:nonzero;fill:rgb(20.392157%,18.823529%,23.921569%);fill-opacity:1;" />
<path d="M 149.839844 312.601562 C 144.738281 312.601562 139.644531 312.984375 134.601562 313.738281 L 134.601562 368.339844 C 138.925781 368.808594 143.265625 369.023438 147.617188 368.992188 C 156.515625 369.636719 165.308594 366.773438 172.125 361.019531 C 177.640625 355.1875 180.519531 347.347656 180.097656 339.332031 C 180.53125 331.875 177.679688 324.605469 172.289062 319.429688 C 165.949219 314.371094 157.917969 311.925781 149.839844 312.601562 Z M 149.027344 363.191406 C 146.597656 363.238281 144.167969 363.09375 141.761719 362.757812 L 141.761719 319.050781 C 144.527344 318.503906 147.34375 318.253906 150.164062 318.292969 C 165.292969 318.292969 172.722656 326.589844 172.613281 339.710938 C 172.667969 354.675781 164.371094 363.242188 149.027344 363.242188 Z M 149.027344 363.191406 " style=" stroke:none;fill-rule:nonzero;fill:rgb(20.392157%,18.823529%,23.921569%);fill-opacity:1;" />
<path d="M 205.90625 337.054688 C 198.261719 334.070312 195.0625 331.632812 195.0625 326.210938 C 195.0625 322.414062 197.9375 317.914062 205.527344 317.914062 C 209.199219 317.914062 212.816406 318.824219 216.046875 320.570312 L 218 314.714844 C 214.207031 312.789062 209.988281 311.855469 205.742188 312.003906 C 194.898438 312.003906 187.796875 318.402344 187.796875 327.078125 C 187.796875 334.886719 193.21875 339.601562 202.4375 342.800781 C 209.917969 345.675781 212.902344 348.660156 212.902344 353.644531 C 212.902344 358.636719 208.617188 363.082031 201.296875 363.082031 C 196.761719 363.039062 192.328125 361.785156 188.445312 359.449219 L 186.65625 366.011719 C 190.988281 368.382812 195.863281 369.601562 200.808594 369.535156 C 213.878906 369.535156 220.222656 362.105469 220.222656 353.59375 C 220.222656 345.078125 215.449219 340.6875 205.90625 337.054688 Z M 205.90625 337.054688 " style=" stroke:none;fill-rule:nonzero;fill:rgb(20.392157%,18.823529%,23.921569%);fill-opacity:1;" />
<path d="M 83.414062 102.320312 C 83.414062 86.757812 83.144531 75.207031 82.4375 63.660156 L 82.871094 63.660156 C 88.078125 74.410156 93.929688 84.84375 100.386719 94.890625 L 129.992188 142.390625 L 142.25 142.390625 L 142.25 48.640625 L 130.859375 48.640625 L 130.859375 87.84375 C 130.859375 102.429688 131.132812 113.871094 132.269531 126.394531 L 132 126.394531 C 127.070312 115.882812 121.453125 105.699219 115.191406 95.921875 L 85.152344 48.476562 L 72.03125 48.476562 L 72.03125 142.390625 L 83.417969 142.390625 C 83.414062 142.390625 83.414062 102.320312 83.414062 102.320312 Z M 83.414062 102.320312 " style=" stroke:none;fill-rule:nonzero;fill:rgb(20.392157%,18.823529%,23.921569%);fill-opacity:1;" />
<path d="M 216.261719 132.25 L 175.648438 132.25 L 175.648438 98.414062 L 212.089844 98.414062 L 212.089844 88.386719 L 175.648438 88.386719 L 175.648438 58.777344 L 214.203125 58.777344 L 214.203125 48.640625 L 163.558594 48.640625 L 163.558594 142.390625 L 216.261719 142.390625 Z M 216.261719 132.25 " style=" stroke:none;fill-rule:nonzero;fill:rgb(20.392157%,18.823529%,23.921569%);fill-opacity:1;" />
<path d="M 261.214844 142.390625 L 274.554688 93.589844 C 277.527344 83.515625 279.949219 73.289062 281.820312 62.953125 C 283.296875 73.25 285.339844 83.460938 287.949219 93.535156 L 299.769531 142.335938 L 312.402344 142.335938 L 338.972656 48.585938 L 326.882812 48.585938 L 314.355469 95.921875 C 311.425781 107.632812 308.933594 118.046875 306.816406 128.457031 L 306.546875 128.457031 C 305.136719 118.585938 302.644531 107.472656 299.984375 96.300781 L 288.597656 48.746094 L 276.074219 48.746094 L 263.546875 96.03125 C 260.347656 108.121094 257.417969 119.292969 255.902344 128.566406 L 255.628906 128.566406 C 253.949219 119.507812 251.457031 107.851562 248.691406 96.03125 L 237.574219 48.585938 L 224.777344 48.585938 L 248.582031 142.335938 Z M 261.214844 142.390625 " style=" stroke:none;fill-rule:nonzero;fill:rgb(20.392157%,18.823529%,23.921569%);fill-opacity:1;" />
<path d="M 370.964844 133.769531 C 363.320312 133.699219 355.832031 131.582031 349.273438 127.640625 L 346.238281 137.78125 C 353.5625 141.777344 361.804688 143.816406 370.152344 143.691406 C 392.273438 143.691406 402.957031 131.167969 402.957031 116.582031 C 402.957031 101.996094 394.878906 94.890625 379.042969 89.035156 C 366.085938 84.046875 360.390625 79.710938 360.390625 70.980469 C 360.390625 64.582031 365.269531 56.9375 378.066406 56.9375 C 384.269531 56.917969 390.386719 58.441406 395.851562 61.382812 L 399.214844 51.511719 C 392.8125 48.253906 385.6875 46.671875 378.5 46.902344 C 360.28125 46.902344 348.191406 57.75 348.191406 72.335938 C 348.191406 85.566406 357.625 93.480469 372.972656 98.90625 C 385.660156 103.785156 390.648438 108.773438 390.648438 117.558594 C 390.648438 126.339844 383.382812 133.769531 370.964844 133.769531 Z M 370.964844 133.769531 " style=" stroke:none;fill-rule:nonzero;fill:rgb(20.392157%,18.823529%,23.921569%);fill-opacity:1;" />
</g>
</svg>