<?xml version="1.0" encoding="iso-8859-1"?>
<!-- Generator: Adobe Illustrator 19.0.0, SVG Export Plug-In . SVG Version: 6.00 Build 0)  -->
<svg version="1.1" id="Capa_1" xmlns="http://www.w3.org/2000/svg" xmlns:xlink="http://www.w3.org/1999/xlink" x="0px" y="0px"
	 viewBox="0 0 511.598 511.598" style="enable-background:new 0 0 511.598 511.598;" xml:space="preserve">
<path style="fill:#E6E9ED;" d="M3.997,59.953v71.943h0.164c0.004,13.243,10.734,23.981,23.977,23.981
	c13.248,0,23.981-10.738,23.985-23.981V59.953H3.997z"/>
<path style="fill:#FFFFFF;" d="M12.154,131.897H11.99V59.953H3.997v71.943h0.164c0.004,13.243,10.734,23.981,23.977,23.981
	c1.37,0,2.689-0.183,3.997-0.402C20.804,153.563,12.158,143.77,12.154,131.897z"/>
<g style="opacity:0.2;">
	<path d="M43.966,131.897h0.164V59.953h7.994v71.943h-0.165c-0.004,13.243-10.734,23.981-23.978,23.981
		c-1.37,0-2.689-0.183-3.997-0.402C35.316,153.563,43.962,143.77,43.966,131.897z"/>
</g>
<polygon style="fill:#E6E9ED;" points="263.792,475.626 119.905,331.739 407.68,331.739 "/>
<polygon style="fill:#A0D468;" points="383.698,331.739 143.887,331.739 263.792,451.645 "/>
<path style="fill:#E6E9ED;" d="M35.972,154.438v193.289c0,4.396-3.599,7.994-7.994,7.994s-7.993-3.599-7.993-7.994V154.438
	c2.479,0.96,5.195,1.44,7.993,1.44C30.777,155.878,33.493,155.398,35.972,154.438z"/>
<g>
	<path style="fill:#FFFFFF;" d="M35.972,155.878v-1.44c-1.276,0.495-2.615,0.851-3.997,1.089
		C33.278,155.753,34.613,155.878,35.972,155.878z"/>
	<path style="fill:#FFFFFF;" d="M27.978,347.727V155.878c-2.798,0-5.515-0.48-7.993-1.44v193.289c0,4.396,3.599,7.994,7.993,7.994
		c1.483,0,2.803-0.523,3.997-1.233C29.633,353.082,27.978,350.639,27.978,347.727z"/>
</g>
<g style="opacity:0.3;">
	<path d="M326.759,331.739c-18.72,10.195-40.164,15.987-62.967,15.987c-22.802,0-44.25-5.792-62.966-15.987h-63.645
		c31.428,34.302,76.444,55.956,126.611,55.956c50.164,0,95.184-21.654,126.612-55.956H326.759z"/>
</g>
<path style="fill:#E6E9ED;" d="M475.626,347.727V59.953c0,0,31.975,7.993,31.975,39.969v95.924h-15.987v151.88
	c0,4.396-3.599,7.994-7.993,7.994C479.225,355.721,475.626,352.122,475.626,347.727z"/>
<g style="opacity:0.2;">
	<path d="M475.626,59.953v3.126c9.469,4.657,23.981,15.289,23.981,36.843v95.924h7.993V99.922
		C507.601,67.946,475.626,59.953,475.626,59.953z"/>
</g>
<path style="fill:#FFFFFF;" d="M483.62,347.727V63.079c-4.575-2.252-7.994-3.126-7.994-3.126v287.773
	c0,4.396,3.599,7.994,7.994,7.994c1.482,0,2.802-0.523,3.996-1.233C485.275,353.082,483.62,350.639,483.62,347.727z"/>
<path style="fill:#E6E9ED;" d="M263.792,35.972c94.887,0,171.865,76.979,171.865,171.865s-76.979,171.864-171.865,171.864
	S91.928,302.722,91.928,207.837C91.928,112.95,168.906,35.972,263.792,35.972z M395.689,207.837
	c0-72.822-59.078-131.896-131.896-131.896c-72.821,0-131.896,59.075-131.896,131.896c0,72.817,59.074,131.896,131.896,131.896
	C336.611,339.734,395.689,280.654,395.689,207.837z"/>
<path style="fill:#FFFFFF;" d="M107.915,207.837c0-92.189,72.72-167.251,163.871-171.459c-2.67-0.125-5.293-0.406-7.994-0.406
	c-94.886,0-171.864,76.979-171.864,171.865s76.979,171.864,171.864,171.864c2.701,0,5.324-0.28,7.994-0.405
	C180.635,375.088,107.915,300.029,107.915,207.837z"/>
<g style="opacity:0.2;">
	<path d="M419.67,207.837c0,92.192-72.724,167.251-163.871,171.459c2.67,0.125,5.297,0.405,7.993,0.405
		c94.887,0,171.865-76.979,171.865-171.864c0-94.887-76.979-171.865-171.865-171.865c-2.696,0-5.323,0.281-7.993,0.406
		C346.946,40.586,419.67,115.648,419.67,207.837z"/>
</g>
<path style="fill:#CCD1D9;" d="M263.792,75.941c72.818,0,131.896,59.075,131.896,131.896c0,72.817-59.078,131.896-131.896,131.896
	c-72.821,0-131.896-59.079-131.896-131.896C131.897,135.015,190.971,75.941,263.792,75.941z"/>
<g style="opacity:0.1;">
	<path d="M147.884,207.837c0-70.125,54.82-127.338,123.902-131.491c-2.654-0.164-5.293-0.406-7.994-0.406
		c-72.821,0-131.896,59.075-131.896,131.896c0,72.817,59.074,131.896,131.896,131.896c2.701,0,5.34-0.242,7.994-0.406
		C202.704,335.174,147.884,277.961,147.884,207.837z"/>
</g>
<g style="opacity:0.5;">
	<path style="fill:#FFFFFF;" d="M379.701,207.837c0,70.124-54.816,127.337-123.902,131.49c2.658,0.164,5.297,0.406,7.993,0.406
		c72.818,0,131.896-59.079,131.896-131.896c0-72.822-59.078-131.896-131.896-131.896c-2.696,0-5.335,0.242-7.993,0.406
		C324.885,80.499,379.701,137.712,379.701,207.837z"/>
</g>
<g>
	<path style="fill:#3A3847;" d="M3.997,135.894c-2.209,0-3.997-1.788-3.997-3.997V59.953c0-2.209,1.787-3.997,3.997-3.997
		s3.997,1.788,3.997,3.997v71.943C7.993,134.106,6.206,135.894,3.997,135.894z"/>
	<path style="fill:#3A3847;" d="M19.985,127.9c-2.209,0-3.997-1.788-3.997-3.997v-63.95c0-2.209,1.788-3.997,3.997-3.997
		s3.997,1.788,3.997,3.997v63.949C23.981,126.112,22.194,127.9,19.985,127.9z"/>
	<path style="fill:#3A3847;" d="M35.972,127.9c-2.209,0-3.997-1.788-3.997-3.997v-63.95c0-2.209,1.788-3.997,3.997-3.997
		s3.997,1.788,3.997,3.997v63.949C39.969,126.112,38.181,127.9,35.972,127.9z"/>
	<path style="fill:#3A3847;" d="M51.959,135.894c-2.209,0-3.997-1.788-3.997-3.997V59.953c0-2.209,1.788-3.997,3.997-3.997
		s3.997,1.788,3.997,3.997v71.943C55.956,134.106,54.168,135.894,51.959,135.894z"/>
	<path style="fill:#3A3847;" d="M27.978,159.875c-3.333,0-6.506-0.574-9.438-1.709C7.51,154.399,0,143.821,0,131.897
		c0-2.209,1.787-3.997,3.997-3.997s3.997,1.788,3.997,3.997c0,8.505,5.34,16.042,13.283,18.759
		c4.316,1.663,9.238,1.608,13.251,0.055c8.095-2.771,13.435-10.309,13.435-18.813c0-2.209,1.788-3.997,3.997-3.997
		s3.997,1.788,3.997,3.997c0,11.924-7.51,22.502-18.692,26.323C34.485,159.301,31.311,159.875,27.978,159.875z"/>
	<path style="fill:#3A3847;" d="M19.985,351.724c-2.209,0-3.997-1.788-3.997-3.997V154.438c0-2.209,1.788-3.997,3.997-3.997
		s3.997,1.788,3.997,3.997v193.289C23.981,349.936,22.194,351.724,19.985,351.724z"/>
	<path style="fill:#3A3847;" d="M475.626,351.724c-2.209,0-3.997-1.788-3.997-3.997V59.953c0-2.209,1.788-3.997,3.997-3.997
		s3.997,1.788,3.997,3.997v287.773C479.623,349.936,477.835,351.724,475.626,351.724z"/>
	<path style="fill:#3A3847;" d="M35.972,351.724c-2.209,0-3.997-1.788-3.997-3.997V154.438c0-2.209,1.788-3.997,3.997-3.997
		s3.997,1.788,3.997,3.997v193.289C39.969,349.936,38.181,351.724,35.972,351.724z"/>
	<path style="fill:#3A3847;" d="M27.978,359.717c-6.612,0-11.99-5.378-11.99-11.99c0-2.209,1.788-3.996,3.997-3.996
		s3.997,1.787,3.997,3.996c0,2.201,1.792,3.997,3.997,3.997c2.206,0,3.997-1.796,3.997-3.997c0-2.209,1.788-3.996,3.997-3.996
		s3.997,1.787,3.997,3.996C39.969,354.339,34.59,359.717,27.978,359.717z"/>
	<path style="fill:#3A3847;" d="M483.62,359.717c-6.612,0-11.991-5.378-11.991-11.99c0-2.209,1.788-3.996,3.997-3.996
		s3.997,1.787,3.997,3.996c0,2.201,1.796,3.997,3.997,3.997s3.996-1.796,3.996-3.997c0-2.209,1.788-3.996,3.997-3.996
		c2.21,0,3.997,1.787,3.997,3.996C495.611,354.339,490.232,359.717,483.62,359.717z"/>
	<path style="fill:#3A3847;" d="M491.613,351.724c-2.209,0-3.997-1.788-3.997-3.997v-151.88c0-2.209,1.788-3.997,3.997-3.997
		c2.21,0,3.997,1.787,3.997,3.997v151.88C495.611,349.936,493.823,351.724,491.613,351.724z"/>
	<path style="fill:#3A3847;" d="M507.601,103.919c-2.209,0-3.996-1.788-3.996-3.997c0-28.384-27.775-35.792-28.962-36.093
		c-2.132-0.547-3.427-2.717-2.889-4.852c0.539-2.151,2.709-3.443,4.84-2.9c0.352,0.086,35.004,9.149,35.004,43.845
		C511.598,102.131,509.81,103.919,507.601,103.919z"/>
	<path style="fill:#3A3847;" d="M507.601,199.843c-2.209,0-3.996-1.787-3.996-3.997V99.922c0-2.209,1.787-3.997,3.996-3.997
		s3.997,1.788,3.997,3.997v95.924C511.598,198.056,509.81,199.843,507.601,199.843z"/>
	<path style="fill:#3A3847;" d="M507.601,199.843h-15.987c-2.209,0-3.997-1.787-3.997-3.997s1.788-3.997,3.997-3.997h15.987
		c2.209,0,3.997,1.787,3.997,3.997S509.81,199.843,507.601,199.843z"/>
	<path style="fill:#3A3847;" d="M263.792,383.698c-96.97,0-175.861-78.891-175.861-175.861S166.822,31.975,263.792,31.975
		c96.971,0,175.862,78.892,175.862,175.862S360.763,383.698,263.792,383.698z M263.792,39.969
		c-92.563,0-167.868,75.304-167.868,167.868c0,92.567,75.304,167.868,167.868,167.868c92.568,0,167.869-75.301,167.869-167.868
		C431.661,115.273,356.361,39.969,263.792,39.969z"/>
	<path style="fill:#3A3847;" d="M263.792,343.731c-74.933,0-135.893-60.961-135.893-135.894c0-74.934,60.96-135.894,135.893-135.894
		c74.934,0,135.894,60.96,135.894,135.894C399.686,282.77,338.726,343.731,263.792,343.731z M263.792,79.938
		c-70.522,0-127.899,57.376-127.899,127.899c0,70.522,57.376,127.899,127.899,127.899s127.9-57.377,127.9-127.899
		C391.693,137.314,334.316,79.938,263.792,79.938z"/>
	<path style="fill:#3A3847;" d="M263.792,455.643c-1.022,0-2.045-0.391-2.825-1.172l-71.943-71.943c-1.562-1.561-1.562-4.09,0-5.651
		c1.561-1.562,4.09-1.562,5.651,0l69.117,69.117l69.118-69.117c1.562-1.562,4.091-1.562,5.651,0c1.562,1.562,1.562,4.091,0,5.651
		l-71.943,71.943C265.838,455.252,264.816,455.643,263.792,455.643z"/>
	<path style="fill:#3A3847;" d="M263.792,479.623c-1.022,0-2.045-0.391-2.825-1.171L117.08,334.566
		c-1.561-1.562-1.561-4.091,0-5.652s4.09-1.562,5.652,0l141.061,141.062l141.062-141.062c1.562-1.562,4.091-1.562,5.651,0
		c1.562,1.562,1.562,4.091,0,5.652L266.618,478.452C265.838,479.233,264.816,479.623,263.792,479.623z"/>
</g>
<g>
</g>
<g>
</g>
<g>
</g>
<g>
</g>
<g>
</g>
<g>
</g>
<g>
</g>
<g>
</g>
<g>
</g>
<g>
</g>
<g>
</g>
<g>
</g>
<g>
</g>
<g>
</g>
<g>
</g>
</svg>
