<svg id="Capa_1" enable-background="new 0 0 512 512" height="512" viewBox="0 0 512 512" width="512" xmlns="http://www.w3.org/2000/svg"><g><path d="m369.291 272.582v146.836l102.997 51.006v-248.848z" fill="#293939"/><path d="m196 121c0 49.706-40.294 90-90 90s-91-40.294-91-90 41.294-90 91-90 90 40.294 90 90z" fill="#f0f7ff"/><circle cx="106" cy="121" fill="#3b4a51" r="60"/><g><path d="m376 211h-361c-8.401 0-15 6.599-15 15v240c0 8.399 6.599 15 15 15h361c8.401 0 15-6.601 15-15v-240c0-8.401-6.599-15-15-15z" fill="#596c76"/></g><path d="m391 226v240c0 8.399-6.599 15-15 15h-180v-270h180c8.401 0 15 6.599 15 15z" fill="#3b4a51"/><g><path d="m497 481h-30c-8.291 0-15-6.709-15-15v-240c0-8.291 6.709-15 15-15h30c8.291 0 15 6.709 15 15v240c0 8.291-6.709 15-15 15z" fill="#3b4a51"/></g><circle cx="106" cy="121" fill="#f0f7ff" r="30"/><circle cx="286" cy="121" fill="#dfe7f4" r="90"/><circle cx="286" cy="121" fill="#293939" r="60"/><circle cx="286" cy="121" fill="#dfe7f4" r="30"/><g><path d="m271 316c0 8.399-6.599 15-15 15h-120c-8.401 0-15-6.601-15-15 0-8.401 6.599-15 15-15h120c8.401 0 15 6.599 15 15z" fill="#f0f7ff"/></g><path d="m271 316c0 8.399-6.599 15-15 15h-60v-30h60c8.401 0 15 6.599 15 15z" fill="#dfe7f4"/><g><path d="m136 391c-24.814 0-45-20.186-45-45s20.186-45 45-45 45 20.186 45 45-20.186 45-45 45z" fill="#f0f7ff"/></g><g><path d="m256 391c-24.814 0-45-20.186-45-45s20.186-45 45-45 45 20.186 45 45-20.186 45-45 45z" fill="#dfe7f4"/></g><circle cx="256" cy="346" fill="#3b4a51" r="15"/><circle cx="136" cy="346" fill="#596c76" r="15"/></g></svg>